<svg xmlns="http://www.w3.org/2000/svg" xmlns:xlink="http://www.w3.org/1999/xlink" width="2000" zoomAndPan="magnify" viewBox="0 0 1500 449.999984" height="600" preserveAspectRatio="xMidYMid meet" version="1.0"><defs><g/><clipPath id="5b165a1b3d"><path d="M 214 225 L 423 225 L 423 404.953125 L 214 404.953125 Z M 214 225 " clip-rule="nonzero"/></clipPath><clipPath id="ab00e8dfd7"><path d="M 13.300781 226 L 259 226 L 259 404.953125 L 13.300781 404.953125 Z M 13.300781 226 " clip-rule="nonzero"/></clipPath></defs><g fill="#ae5630" fill-opacity="0.4"><g transform="translate(493.145426, 296.162139)"><g><path d="M 71.34375 -38.484375 C 74.332031 -39.335938 76.921875 -39.226562 79.109375 -38.15625 C 81.304688 -37.09375 83.019531 -35.488281 84.25 -33.34375 C 85.476562 -31.207031 86.117188 -28.910156 86.171875 -26.453125 C 86.222656 -23.992188 85.582031 -21.722656 84.25 -19.640625 C 82.914062 -17.554688 80.753906 -16.140625 77.765625 -15.390625 C 72.304688 -13.785156 66.71875 -12.609375 61 -11.859375 C 55.28125 -11.109375 49.613281 -11.082031 44 -11.78125 C 38.394531 -12.476562 33.023438 -14.269531 27.890625 -17.15625 C 21.265625 -21 16.210938 -26.234375 12.734375 -32.859375 C 9.265625 -39.492188 7.691406 -46.601562 8.015625 -54.1875 C 8.441406 -61.664062 10.3125 -68.851562 13.625 -75.75 C 16.9375 -82.644531 21.34375 -88.710938 26.84375 -93.953125 C 32.351562 -99.191406 38.609375 -103.226562 45.609375 -106.0625 C 52.609375 -108.894531 59.90625 -110.039062 67.5 -109.5 C 70.59375 -109.175781 73.078125 -108.132812 74.953125 -106.375 C 76.828125 -104.613281 78.054688 -102.53125 78.640625 -100.125 C 79.222656 -97.71875 79.222656 -95.335938 78.640625 -92.984375 C 78.054688 -90.640625 76.828125 -88.71875 74.953125 -87.21875 C 73.078125 -85.71875 70.59375 -85.128906 67.5 -85.453125 C 61.9375 -85.878906 56.671875 -84.835938 51.703125 -82.328125 C 46.734375 -79.816406 42.535156 -76.316406 39.109375 -71.828125 C 35.691406 -67.335938 33.503906 -62.367188 32.546875 -56.921875 C 31.585938 -52.003906 31.828125 -48.070312 33.265625 -45.125 C 34.710938 -42.1875 36.878906 -40.023438 39.765625 -38.640625 C 42.648438 -37.253906 45.9375 -36.398438 49.625 -36.078125 C 53.3125 -35.753906 57.050781 -35.859375 60.84375 -36.390625 C 64.632812 -36.929688 68.132812 -37.628906 71.34375 -38.484375 Z M 71.34375 -38.484375 "/></g></g></g><g fill="#ae5630" fill-opacity="0.4"><g transform="translate(587.392123, 296.162139)"><g><path d="M 91.234375 -15.078125 C 93.046875 -12.503906 93.789062 -10.066406 93.46875 -7.765625 C 93.144531 -5.472656 92.128906 -3.472656 90.421875 -1.765625 C 88.710938 -0.0546875 86.65625 1.144531 84.25 1.84375 C 81.84375 2.539062 79.382812 2.539062 76.875 1.84375 C 74.363281 1.144531 72.203125 -0.429688 70.390625 -2.890625 C 65.578125 -9.515625 60.203125 -15.601562 54.265625 -21.15625 C 48.335938 -26.71875 41.953125 -31.742188 35.109375 -36.234375 C 34.578125 -29.929688 34.070312 -23.597656 33.59375 -17.234375 C 33.113281 -10.878906 32.601562 -4.546875 32.0625 1.765625 C 31.851562 4.859375 30.863281 7.3125 29.09375 9.125 C 27.332031 10.945312 25.222656 12.175781 22.765625 12.8125 C 20.304688 13.457031 17.925781 13.488281 15.625 12.90625 C 13.332031 12.320312 11.4375 11.09375 9.9375 9.21875 C 8.445312 7.34375 7.804688 4.859375 8.015625 1.765625 C 8.972656 -9.890625 9.71875 -21.753906 10.25 -33.828125 C 10.789062 -45.910156 12.238281 -57.722656 14.59375 -69.265625 C 15.769531 -75.242188 17.957031 -81.015625 21.15625 -86.578125 C 24.363281 -92.140625 28.453125 -96.734375 33.421875 -100.359375 C 38.398438 -103.992188 44.203125 -105.972656 50.828125 -106.296875 C 55.421875 -106.515625 59.773438 -105.660156 63.890625 -103.734375 C 68.003906 -101.804688 71.503906 -99.128906 74.390625 -95.703125 C 77.273438 -92.285156 79.222656 -88.441406 80.234375 -84.171875 C 81.253906 -79.898438 81.015625 -75.460938 79.515625 -70.859375 C 78.023438 -66.265625 75.59375 -61.9375 72.21875 -57.875 C 68.851562 -53.8125 64.984375 -50.285156 60.609375 -47.296875 C 72.046875 -37.992188 82.253906 -27.253906 91.234375 -15.078125 Z M 48.265625 -68.453125 C 48.898438 -69.097656 49.960938 -70.085938 51.453125 -71.421875 C 52.953125 -72.765625 54.289062 -74.179688 55.46875 -75.671875 C 56.644531 -77.171875 57.128906 -78.347656 56.921875 -79.203125 C 56.492188 -81.441406 55.664062 -82.664062 54.4375 -82.875 C 53.207031 -83.09375 51.816406 -82.75 50.265625 -81.84375 C 48.710938 -80.9375 47.1875 -79.707031 45.6875 -78.15625 C 44.195312 -76.601562 42.914062 -75.132812 41.84375 -73.75 C 40.78125 -72.363281 40.085938 -71.347656 39.765625 -70.703125 C 38.910156 -68.242188 38.160156 -65.570312 37.515625 -62.6875 C 39.648438 -63.007812 41.570312 -63.675781 43.28125 -64.6875 C 45 -65.707031 46.660156 -66.960938 48.265625 -68.453125 Z M 48.265625 -68.453125 "/></g></g></g><g fill="#ae5630" fill-opacity="0.4"><g transform="translate(688.851577, 296.162139)"><g><path d="M 89.140625 -97.953125 C 91.703125 -93.785156 93.460938 -89.109375 94.421875 -83.921875 C 95.390625 -78.742188 95.820312 -73.507812 95.71875 -68.21875 C 95.613281 -62.925781 95.1875 -57.984375 94.4375 -53.390625 C 93.363281 -46.335938 91.171875 -39.65625 87.859375 -33.34375 C 84.546875 -27.039062 80.109375 -21.59375 74.546875 -17 C 69.203125 -12.613281 63.003906 -9.40625 55.953125 -7.375 C 48.898438 -5.34375 42.003906 -5.394531 35.265625 -7.53125 C 30.773438 -8.925781 26.875 -11.222656 23.5625 -14.421875 C 20.25 -17.628906 17.46875 -21.289062 15.21875 -25.40625 C 12.976562 -29.519531 11.328125 -33.71875 10.265625 -38 C 8.984375 -42.695312 8.234375 -48.117188 8.015625 -54.265625 C 7.804688 -60.410156 8.234375 -66.691406 9.296875 -73.109375 C 10.367188 -79.523438 12.132812 -85.507812 14.59375 -91.0625 C 17.050781 -96.625 20.363281 -101.222656 24.53125 -104.859375 C 28.800781 -109.234375 33.929688 -112.328125 39.921875 -114.140625 C 45.910156 -115.960938 52.054688 -116.578125 58.359375 -115.984375 C 64.660156 -115.398438 70.535156 -113.585938 75.984375 -110.546875 C 81.441406 -107.503906 85.828125 -103.304688 89.140625 -97.953125 Z M 59.96875 -35.59375 C 63.59375 -39.007812 66.285156 -42.988281 68.046875 -47.53125 C 69.816406 -52.070312 70.914062 -56.828125 71.34375 -61.796875 C 71.769531 -66.773438 71.664062 -71.613281 71.03125 -76.3125 C 70.382812 -81.019531 68.535156 -84.867188 65.484375 -87.859375 C 62.441406 -90.847656 58.410156 -92.289062 53.390625 -92.1875 C 50.609375 -92.1875 47.90625 -91.488281 45.28125 -90.09375 C 42.664062 -88.707031 40.503906 -86.894531 38.796875 -84.65625 C 36.867188 -81.976562 35.476562 -78.769531 34.625 -75.03125 C 33.769531 -71.289062 33.128906 -67.816406 32.703125 -64.609375 C 31.742188 -57.453125 32.117188 -50.398438 33.828125 -43.453125 C 34.359375 -41.421875 35.078125 -39.390625 35.984375 -37.359375 C 36.898438 -35.328125 38.210938 -33.671875 39.921875 -32.390625 C 42.703125 -30.359375 45.878906 -29.632812 49.453125 -30.21875 C 53.035156 -30.8125 56.164062 -32.226562 58.84375 -34.46875 C 59.164062 -34.789062 59.539062 -35.164062 59.96875 -35.59375 Z M 59.96875 -35.59375 "/></g></g></g><g fill="#ae5630" fill-opacity="0.4"><g transform="translate(792.554996, 296.162139)"><g><path d="M 118.484375 -87.859375 C 120.410156 -71.609375 119.769531 -55.414062 116.5625 -39.28125 C 115.59375 -34.894531 114.46875 -30.40625 113.1875 -25.8125 C 111.90625 -21.21875 110.195312 -16.78125 108.0625 -12.5 C 105.925781 -8.226562 103.203125 -4.488281 99.890625 -1.28125 C 96.578125 1.925781 92.804688 4.273438 88.578125 5.765625 C 84.359375 7.265625 80.054688 7.773438 75.671875 7.296875 C 71.285156 6.816406 67.171875 5.238281 63.328125 2.5625 C 61.191406 1.070312 59.320312 -0.6875 57.71875 -2.71875 C 54.082031 0.0507812 50.097656 1.914062 45.765625 2.875 C 41.441406 3.84375 37.113281 3.578125 32.78125 2.078125 C 28.457031 0.585938 24.425781 -2.398438 20.6875 -6.890625 C 17.6875 -10.628906 15.382812 -14.820312 13.78125 -19.46875 C 12.1875 -24.125 11.039062 -28.910156 10.34375 -33.828125 C 9.644531 -38.742188 9.082031 -43.5 8.65625 -48.09375 C 7.90625 -56.113281 7.796875 -64.128906 8.328125 -72.140625 C 8.867188 -80.160156 9.890625 -88.125 11.390625 -96.03125 C 11.921875 -99.132812 13.117188 -101.378906 14.984375 -102.765625 C 16.859375 -104.160156 19.023438 -104.828125 21.484375 -104.765625 C 23.941406 -104.710938 26.238281 -104.070312 28.375 -102.84375 C 30.507812 -101.613281 32.191406 -99.875 33.421875 -97.625 C 34.648438 -95.382812 35 -92.71875 34.46875 -89.625 C 32.96875 -81.5 32.140625 -73.265625 31.984375 -64.921875 C 31.828125 -56.585938 32.441406 -48.304688 33.828125 -40.078125 C 34.046875 -38.691406 34.367188 -36.582031 34.796875 -33.75 C 35.222656 -30.914062 35.890625 -28.210938 36.796875 -25.640625 C 37.703125 -23.078125 39.007812 -21.53125 40.71875 -21 C 42.320312 -20.46875 43.628906 -20.65625 44.640625 -21.5625 C 45.660156 -22.46875 46.4375 -23.722656 46.96875 -25.328125 C 47.507812 -26.929688 47.882812 -28.5625 48.09375 -30.21875 C 48.3125 -31.875 48.367188 -33.1875 48.265625 -34.15625 C 48.046875 -37.351562 48.710938 -39.859375 50.265625 -41.671875 C 51.816406 -43.492188 53.738281 -44.695312 56.03125 -45.28125 C 58.332031 -45.875 60.6875 -45.875 63.09375 -45.28125 C 65.5 -44.695312 67.582031 -43.46875 69.34375 -41.59375 C 71.101562 -39.726562 72.09375 -37.25 72.3125 -34.15625 C 72.3125 -32.976562 72.390625 -31.347656 72.546875 -29.265625 C 72.703125 -27.179688 73.019531 -25.09375 73.5 -23 C 73.988281 -20.914062 74.789062 -19.234375 75.90625 -17.953125 C 77.03125 -16.671875 78.554688 -16.296875 80.484375 -16.828125 C 82.617188 -17.367188 84.351562 -18.785156 85.6875 -21.078125 C 87.03125 -23.378906 88.070312 -25.863281 88.8125 -28.53125 C 89.5625 -31.207031 90.207031 -33.398438 90.75 -35.109375 C 93.207031 -43.765625 94.703125 -52.5 95.234375 -61.3125 C 95.765625 -70.132812 95.5 -78.984375 94.4375 -87.859375 C 94.113281 -90.960938 94.644531 -93.421875 96.03125 -95.234375 C 97.425781 -97.046875 99.269531 -98.242188 101.5625 -98.828125 C 103.863281 -99.421875 106.242188 -99.394531 108.703125 -98.75 C 111.160156 -98.113281 113.320312 -96.882812 115.1875 -95.0625 C 117.0625 -93.25 118.160156 -90.847656 118.484375 -87.859375 Z M 118.484375 -87.859375 "/></g></g></g><g fill="#ae5630" fill-opacity="0.4"><g transform="translate(920.140649, 296.162139)"><g><path d="M 69.421875 -99.25 C 74.867188 -94.332031 79.085938 -88.476562 82.078125 -81.6875 C 85.078125 -74.894531 86.148438 -67.757812 85.296875 -60.28125 C 84.546875 -54.082031 82.539062 -48.285156 79.28125 -42.890625 C 76.019531 -37.492188 72.039062 -32.816406 67.34375 -28.859375 C 62.101562 -24.367188 55.925781 -20.757812 48.8125 -18.03125 C 41.707031 -15.3125 34.894531 -12.878906 28.375 -10.734375 C 26.5625 -10.097656 24.71875 -9.59375 22.84375 -9.21875 C 20.976562 -8.84375 19.132812 -8.765625 17.3125 -8.984375 C 14.75 -9.296875 12.53125 -10.492188 10.65625 -12.578125 C 8.789062 -14.671875 7.910156 -17 8.015625 -19.5625 C 8.765625 -48.632812 10.207031 -77.757812 12.34375 -106.9375 C 12.5625 -110.25 13.65625 -112.570312 15.625 -113.90625 C 17.601562 -115.25 19.957031 -115.945312 22.6875 -116 C 25.414062 -116.050781 28.0625 -115.863281 30.625 -115.4375 C 32.125 -115.21875 33.515625 -115.003906 34.796875 -114.796875 C 41.097656 -113.515625 47.1875 -111.722656 53.0625 -109.421875 C 58.945312 -107.128906 64.398438 -103.738281 69.421875 -99.25 Z M 60.4375 -59 C 61.9375 -63.269531 62.175781 -67.171875 61.15625 -70.703125 C 60.144531 -74.234375 58.300781 -77.28125 55.625 -79.84375 C 52.957031 -82.40625 49.804688 -84.539062 46.171875 -86.25 C 42.535156 -87.96875 38.847656 -89.253906 35.109375 -90.109375 C 34.046875 -72.578125 33.191406 -55.15625 32.546875 -37.84375 C 36.503906 -39.125 40.328125 -40.59375 44.015625 -42.25 C 47.703125 -43.90625 50.988281 -46.039062 53.875 -48.65625 C 56.757812 -51.28125 58.945312 -54.726562 60.4375 -59 Z M 60.4375 -59 "/></g></g></g><g fill="#ae5630" fill-opacity="0.4"><g transform="translate(1013.746229, 296.162139)"><g><path d="M 59.796875 -69.265625 C 65.785156 -65.203125 70.515625 -59.910156 73.984375 -53.390625 C 77.460938 -46.867188 78.828125 -39.921875 78.078125 -32.546875 C 77.328125 -26.128906 75.132812 -20.625 71.5 -16.03125 C 67.875 -11.4375 63.414062 -7.851562 58.125 -5.28125 C 52.832031 -2.71875 47.21875 -1.300781 41.28125 -1.03125 C 35.351562 -0.769531 29.660156 -1.757812 24.203125 -4 C 18.753906 -6.25 14.160156 -9.882812 10.421875 -14.90625 C 8.492188 -17.363281 7.691406 -19.738281 8.015625 -22.03125 C 8.335938 -24.332031 9.328125 -26.335938 10.984375 -28.046875 C 12.640625 -29.765625 14.695312 -30.96875 17.15625 -31.65625 C 19.613281 -32.351562 22.097656 -32.378906 24.609375 -31.734375 C 27.117188 -31.097656 29.285156 -29.550781 31.109375 -27.09375 C 31.960938 -25.914062 33.5625 -25.242188 35.90625 -25.078125 C 38.257812 -24.921875 40.613281 -25.03125 42.96875 -25.40625 C 45.320312 -25.78125 46.976562 -26.179688 47.9375 -26.609375 C 50.1875 -27.679688 51.867188 -29.257812 52.984375 -31.34375 C 54.109375 -33.425781 54.507812 -35.695312 54.1875 -38.15625 C 53.863281 -41.144531 52.796875 -43.601562 50.984375 -45.53125 C 49.171875 -47.457031 47.003906 -49.140625 44.484375 -50.578125 C 41.972656 -52.023438 39.4375 -53.414062 36.875 -54.75 C 34.3125 -56.082031 32.066406 -57.550781 30.140625 -59.15625 C 24.796875 -63.863281 21.535156 -68.96875 20.359375 -74.46875 C 19.179688 -79.976562 19.582031 -85.484375 21.5625 -90.984375 C 23.539062 -96.492188 26.613281 -101.488281 30.78125 -105.96875 C 34.945312 -110.457031 39.703125 -113.929688 45.046875 -116.390625 C 47.929688 -117.785156 50.601562 -118.160156 53.0625 -117.515625 C 55.519531 -116.878906 57.628906 -115.675781 59.390625 -113.90625 C 61.160156 -112.144531 62.363281 -110.085938 63 -107.734375 C 63.644531 -105.390625 63.539062 -103.117188 62.6875 -100.921875 C 61.832031 -98.734375 60.015625 -97 57.234375 -95.71875 C 55.421875 -94.863281 53.3125 -93.6875 50.90625 -92.1875 C 48.5 -90.6875 46.519531 -88.894531 44.96875 -86.8125 C 43.414062 -84.726562 43.125 -82.40625 44.09375 -79.84375 C 44.625 -78.132812 45.878906 -76.664062 47.859375 -75.4375 C 49.835938 -74.207031 51.945312 -73.109375 54.1875 -72.140625 C 56.4375 -71.179688 58.304688 -70.222656 59.796875 -69.265625 Z M 59.796875 -69.265625 "/></g></g></g><g fill="#ae5630" fill-opacity="0.4"><g transform="translate(1099.978748, 296.162139)"><g><path d="M 89.140625 -97.953125 C 91.703125 -93.785156 93.460938 -89.109375 94.421875 -83.921875 C 95.390625 -78.742188 95.820312 -73.507812 95.71875 -68.21875 C 95.613281 -62.925781 95.1875 -57.984375 94.4375 -53.390625 C 93.363281 -46.335938 91.171875 -39.65625 87.859375 -33.34375 C 84.546875 -27.039062 80.109375 -21.59375 74.546875 -17 C 69.203125 -12.613281 63.003906 -9.40625 55.953125 -7.375 C 48.898438 -5.34375 42.003906 -5.394531 35.265625 -7.53125 C 30.773438 -8.925781 26.875 -11.222656 23.5625 -14.421875 C 20.25 -17.628906 17.46875 -21.289062 15.21875 -25.40625 C 12.976562 -29.519531 11.328125 -33.71875 10.265625 -38 C 8.984375 -42.695312 8.234375 -48.117188 8.015625 -54.265625 C 7.804688 -60.410156 8.234375 -66.691406 9.296875 -73.109375 C 10.367188 -79.523438 12.132812 -85.507812 14.59375 -91.0625 C 17.050781 -96.625 20.363281 -101.222656 24.53125 -104.859375 C 28.800781 -109.234375 33.929688 -112.328125 39.921875 -114.140625 C 45.910156 -115.960938 52.054688 -116.578125 58.359375 -115.984375 C 64.660156 -115.398438 70.535156 -113.585938 75.984375 -110.546875 C 81.441406 -107.503906 85.828125 -103.304688 89.140625 -97.953125 Z M 59.96875 -35.59375 C 63.59375 -39.007812 66.285156 -42.988281 68.046875 -47.53125 C 69.816406 -52.070312 70.914062 -56.828125 71.34375 -61.796875 C 71.769531 -66.773438 71.664062 -71.613281 71.03125 -76.3125 C 70.382812 -81.019531 68.535156 -84.867188 65.484375 -87.859375 C 62.441406 -90.847656 58.410156 -92.289062 53.390625 -92.1875 C 50.609375 -92.1875 47.90625 -91.488281 45.28125 -90.09375 C 42.664062 -88.707031 40.503906 -86.894531 38.796875 -84.65625 C 36.867188 -81.976562 35.476562 -78.769531 34.625 -75.03125 C 33.769531 -71.289062 33.128906 -67.816406 32.703125 -64.609375 C 31.742188 -57.453125 32.117188 -50.398438 33.828125 -43.453125 C 34.359375 -41.421875 35.078125 -39.390625 35.984375 -37.359375 C 36.898438 -35.328125 38.210938 -33.671875 39.921875 -32.390625 C 42.703125 -30.359375 45.878906 -29.632812 49.453125 -30.21875 C 53.035156 -30.8125 56.164062 -32.226562 58.84375 -34.46875 C 59.164062 -34.789062 59.539062 -35.164062 59.96875 -35.59375 Z M 59.96875 -35.59375 "/></g></g></g><g fill="#ae5630" fill-opacity="0.4"><g transform="translate(1203.682167, 296.162139)"><g><path d="M 70.703125 -51.78125 C 73.804688 -52 76.265625 -51.382812 78.078125 -49.9375 C 79.898438 -48.5 81.128906 -46.601562 81.765625 -44.25 C 82.410156 -41.894531 82.410156 -39.488281 81.765625 -37.03125 C 81.128906 -34.570312 79.875 -32.460938 78 -30.703125 C 76.125 -28.941406 73.691406 -27.953125 70.703125 -27.734375 C 62.578125 -27.097656 54.585938 -26.054688 46.734375 -24.609375 C 38.878906 -23.171875 31.050781 -21.328125 23.25 -19.078125 C 21 -18.429688 18.644531 -18.5625 16.1875 -19.46875 C 13.726562 -20.382812 11.695312 -21.832031 10.09375 -23.8125 C 8.5 -25.789062 7.804688 -28.113281 8.015625 -30.78125 C 9.296875 -43.289062 10.550781 -55.796875 11.78125 -68.296875 C 13.007812 -80.804688 14.210938 -93.3125 15.390625 -105.8125 C 15.710938 -108.8125 16.78125 -111.242188 18.59375 -113.109375 C 20.414062 -114.984375 22.554688 -116.210938 25.015625 -116.796875 C 27.472656 -117.390625 29.847656 -117.390625 32.140625 -116.796875 C 34.441406 -116.210938 36.3125 -114.984375 37.75 -113.109375 C 39.195312 -111.242188 39.757812 -108.8125 39.4375 -105.8125 C 38.476562 -95.875 37.515625 -85.960938 36.546875 -76.078125 C 35.585938 -66.191406 34.628906 -56.332031 33.671875 -46.5 C 45.742188 -49.0625 58.085938 -50.820312 70.703125 -51.78125 Z M 70.703125 -51.78125 "/></g></g></g><g fill="#ae5630" fill-opacity="0.4"><g transform="translate(1293.92175, 296.162139)"><g><path d="M 70.21875 -84.96875 C 71.289062 -87.851562 72.945312 -89.9375 75.1875 -91.21875 C 77.4375 -92.507812 79.816406 -93.125 82.328125 -93.0625 C 84.835938 -93.007812 87.132812 -92.367188 89.21875 -91.140625 C 91.300781 -89.910156 92.796875 -88.226562 93.703125 -86.09375 C 94.617188 -83.957031 94.539062 -81.445312 93.46875 -78.5625 C 83.53125 -52.15625 72.414062 -26.503906 60.125 -1.609375 C 58.726562 1.273438 56.664062 3.09375 53.9375 3.84375 C 51.21875 4.59375 48.492188 4.457031 45.765625 3.4375 C 43.046875 2.425781 40.9375 0.742188 39.4375 -1.609375 C 34.09375 -9.835938 29.679688 -18.65625 26.203125 -28.0625 C 22.734375 -37.46875 19.660156 -47.03125 16.984375 -56.75 C 14.316406 -66.476562 11.539062 -75.941406 8.65625 -85.140625 C 7.695312 -88.128906 7.722656 -90.71875 8.734375 -92.90625 C 9.753906 -95.101562 11.332031 -96.816406 13.46875 -98.046875 C 15.601562 -99.273438 17.898438 -99.890625 20.359375 -99.890625 C 22.816406 -99.890625 25.113281 -99.21875 27.25 -97.875 C 29.394531 -96.539062 30.894531 -94.429688 31.75 -91.546875 C 34.632812 -82.460938 37.382812 -73.054688 40 -63.328125 C 42.625 -53.597656 45.75 -44.140625 49.375 -34.953125 C 53.125 -43.179688 56.734375 -51.460938 60.203125 -59.796875 C 63.671875 -68.140625 67.007812 -76.53125 70.21875 -84.96875 Z M 70.21875 -84.96875 "/></g></g></g><g fill="#ae5630" fill-opacity="0.4"><g transform="translate(1396.182679, 296.162139)"><g><path d="M 66.859375 -33.828125 C 69.953125 -33.722656 72.4375 -32.8125 74.3125 -31.09375 C 76.1875 -29.382812 77.414062 -27.328125 78 -24.921875 C 78.582031 -22.523438 78.582031 -20.148438 78 -17.796875 C 77.414062 -15.441406 76.1875 -13.488281 74.3125 -11.9375 C 72.4375 -10.394531 69.953125 -9.675781 66.859375 -9.78125 C 59.585938 -10.101562 52.316406 -10.078125 45.046875 -9.703125 C 37.785156 -9.328125 30.519531 -8.550781 23.25 -7.375 C 21 -7.050781 18.644531 -7.289062 16.1875 -8.09375 C 13.726562 -8.894531 11.671875 -10.203125 10.015625 -12.015625 C 8.359375 -13.835938 7.742188 -16.191406 8.171875 -19.078125 C 9.992188 -33.828125 12 -48.578125 14.1875 -63.328125 C 16.375 -78.078125 18.753906 -92.828125 21.328125 -107.578125 C 21.640625 -109.398438 22.28125 -110.953125 23.25 -112.234375 C 24.101562 -113.722656 25.332031 -114.972656 26.9375 -115.984375 C 28.539062 -117.003906 30.519531 -117.570312 32.875 -117.6875 C 44.414062 -118 55.957031 -117.785156 67.5 -117.046875 C 70.59375 -116.828125 73.078125 -115.832031 74.953125 -114.0625 C 76.828125 -112.300781 78.054688 -110.21875 78.640625 -107.8125 C 79.222656 -105.414062 79.222656 -103.039062 78.640625 -100.6875 C 78.054688 -98.332031 76.828125 -96.40625 74.953125 -94.90625 C 73.078125 -93.414062 70.59375 -92.773438 67.5 -92.984375 C 59.59375 -93.523438 51.519531 -93.796875 43.28125 -93.796875 C 42.75 -90.691406 42.21875 -87.585938 41.6875 -84.484375 C 41.15625 -81.390625 40.675781 -78.289062 40.25 -75.1875 C 44.625 -75.082031 48.84375 -74.816406 52.90625 -74.390625 C 56.113281 -74.066406 58.921875 -72.863281 61.328125 -70.78125 C 63.734375 -68.695312 64.9375 -65.894531 64.9375 -62.375 C 64.9375 -60.34375 64.375 -58.363281 63.25 -56.4375 C 62.125 -54.507812 60.648438 -52.957031 58.828125 -51.78125 C 57.015625 -50.601562 55.039062 -50.125 52.90625 -50.34375 C 47.457031 -50.875 42.007812 -51.140625 36.5625 -51.140625 C 36.125 -48.148438 35.691406 -45.101562 35.265625 -42 C 34.835938 -38.90625 34.410156 -35.863281 33.984375 -32.875 C 39.441406 -33.40625 44.894531 -33.75 50.34375 -33.90625 C 55.789062 -34.070312 61.296875 -34.046875 66.859375 -33.828125 Z M 66.859375 -33.828125 "/></g></g></g><g fill="#ef8535" fill-opacity="1"><g transform="translate(486.058562, 289.075282)"><g><path d="M 71.34375 -38.484375 C 74.332031 -39.335938 76.921875 -39.226562 79.109375 -38.15625 C 81.304688 -37.09375 83.019531 -35.488281 84.25 -33.34375 C 85.476562 -31.207031 86.117188 -28.910156 86.171875 -26.453125 C 86.222656 -23.992188 85.582031 -21.722656 84.25 -19.640625 C 82.914062 -17.554688 80.753906 -16.140625 77.765625 -15.390625 C 72.304688 -13.785156 66.71875 -12.609375 61 -11.859375 C 55.28125 -11.109375 49.613281 -11.082031 44 -11.78125 C 38.394531 -12.476562 33.023438 -14.269531 27.890625 -17.15625 C 21.265625 -21 16.210938 -26.234375 12.734375 -32.859375 C 9.265625 -39.492188 7.691406 -46.601562 8.015625 -54.1875 C 8.441406 -61.664062 10.3125 -68.851562 13.625 -75.75 C 16.9375 -82.644531 21.34375 -88.710938 26.84375 -93.953125 C 32.351562 -99.191406 38.609375 -103.226562 45.609375 -106.0625 C 52.609375 -108.894531 59.90625 -110.039062 67.5 -109.5 C 70.59375 -109.175781 73.078125 -108.132812 74.953125 -106.375 C 76.828125 -104.613281 78.054688 -102.53125 78.640625 -100.125 C 79.222656 -97.71875 79.222656 -95.335938 78.640625 -92.984375 C 78.054688 -90.640625 76.828125 -88.71875 74.953125 -87.21875 C 73.078125 -85.71875 70.59375 -85.128906 67.5 -85.453125 C 61.9375 -85.878906 56.671875 -84.835938 51.703125 -82.328125 C 46.734375 -79.816406 42.535156 -76.316406 39.109375 -71.828125 C 35.691406 -67.335938 33.503906 -62.367188 32.546875 -56.921875 C 31.585938 -52.003906 31.828125 -48.070312 33.265625 -45.125 C 34.710938 -42.1875 36.878906 -40.023438 39.765625 -38.640625 C 42.648438 -37.253906 45.9375 -36.398438 49.625 -36.078125 C 53.3125 -35.753906 57.050781 -35.859375 60.84375 -36.390625 C 64.632812 -36.929688 68.132812 -37.628906 71.34375 -38.484375 Z M 71.34375 -38.484375 "/></g></g></g><g fill="#ef8535" fill-opacity="1"><g transform="translate(580.30526, 289.075282)"><g><path d="M 91.234375 -15.078125 C 93.046875 -12.503906 93.789062 -10.066406 93.46875 -7.765625 C 93.144531 -5.472656 92.128906 -3.472656 90.421875 -1.765625 C 88.710938 -0.0546875 86.65625 1.144531 84.25 1.84375 C 81.84375 2.539062 79.382812 2.539062 76.875 1.84375 C 74.363281 1.144531 72.203125 -0.429688 70.390625 -2.890625 C 65.578125 -9.515625 60.203125 -15.601562 54.265625 -21.15625 C 48.335938 -26.71875 41.953125 -31.742188 35.109375 -36.234375 C 34.578125 -29.929688 34.070312 -23.597656 33.59375 -17.234375 C 33.113281 -10.878906 32.601562 -4.546875 32.0625 1.765625 C 31.851562 4.859375 30.863281 7.3125 29.09375 9.125 C 27.332031 10.945312 25.222656 12.175781 22.765625 12.8125 C 20.304688 13.457031 17.925781 13.488281 15.625 12.90625 C 13.332031 12.320312 11.4375 11.09375 9.9375 9.21875 C 8.445312 7.34375 7.804688 4.859375 8.015625 1.765625 C 8.972656 -9.890625 9.71875 -21.753906 10.25 -33.828125 C 10.789062 -45.910156 12.238281 -57.722656 14.59375 -69.265625 C 15.769531 -75.242188 17.957031 -81.015625 21.15625 -86.578125 C 24.363281 -92.140625 28.453125 -96.734375 33.421875 -100.359375 C 38.398438 -103.992188 44.203125 -105.972656 50.828125 -106.296875 C 55.421875 -106.515625 59.773438 -105.660156 63.890625 -103.734375 C 68.003906 -101.804688 71.503906 -99.128906 74.390625 -95.703125 C 77.273438 -92.285156 79.222656 -88.441406 80.234375 -84.171875 C 81.253906 -79.898438 81.015625 -75.460938 79.515625 -70.859375 C 78.023438 -66.265625 75.59375 -61.9375 72.21875 -57.875 C 68.851562 -53.8125 64.984375 -50.285156 60.609375 -47.296875 C 72.046875 -37.992188 82.253906 -27.253906 91.234375 -15.078125 Z M 48.265625 -68.453125 C 48.898438 -69.097656 49.960938 -70.085938 51.453125 -71.421875 C 52.953125 -72.765625 54.289062 -74.179688 55.46875 -75.671875 C 56.644531 -77.171875 57.128906 -78.347656 56.921875 -79.203125 C 56.492188 -81.441406 55.664062 -82.664062 54.4375 -82.875 C 53.207031 -83.09375 51.816406 -82.75 50.265625 -81.84375 C 48.710938 -80.9375 47.1875 -79.707031 45.6875 -78.15625 C 44.195312 -76.601562 42.914062 -75.132812 41.84375 -73.75 C 40.78125 -72.363281 40.085938 -71.347656 39.765625 -70.703125 C 38.910156 -68.242188 38.160156 -65.570312 37.515625 -62.6875 C 39.648438 -63.007812 41.570312 -63.675781 43.28125 -64.6875 C 45 -65.707031 46.660156 -66.960938 48.265625 -68.453125 Z M 48.265625 -68.453125 "/></g></g></g><g fill="#ef8535" fill-opacity="1"><g transform="translate(681.764714, 289.075282)"><g><path d="M 89.140625 -97.953125 C 91.703125 -93.785156 93.460938 -89.109375 94.421875 -83.921875 C 95.390625 -78.742188 95.820312 -73.507812 95.71875 -68.21875 C 95.613281 -62.925781 95.1875 -57.984375 94.4375 -53.390625 C 93.363281 -46.335938 91.171875 -39.65625 87.859375 -33.34375 C 84.546875 -27.039062 80.109375 -21.59375 74.546875 -17 C 69.203125 -12.613281 63.003906 -9.40625 55.953125 -7.375 C 48.898438 -5.34375 42.003906 -5.394531 35.265625 -7.53125 C 30.773438 -8.925781 26.875 -11.222656 23.5625 -14.421875 C 20.25 -17.628906 17.46875 -21.289062 15.21875 -25.40625 C 12.976562 -29.519531 11.328125 -33.71875 10.265625 -38 C 8.984375 -42.695312 8.234375 -48.117188 8.015625 -54.265625 C 7.804688 -60.410156 8.234375 -66.691406 9.296875 -73.109375 C 10.367188 -79.523438 12.132812 -85.507812 14.59375 -91.0625 C 17.050781 -96.625 20.363281 -101.222656 24.53125 -104.859375 C 28.800781 -109.234375 33.929688 -112.328125 39.921875 -114.140625 C 45.910156 -115.960938 52.054688 -116.578125 58.359375 -115.984375 C 64.660156 -115.398438 70.535156 -113.585938 75.984375 -110.546875 C 81.441406 -107.503906 85.828125 -103.304688 89.140625 -97.953125 Z M 59.96875 -35.59375 C 63.59375 -39.007812 66.285156 -42.988281 68.046875 -47.53125 C 69.816406 -52.070312 70.914062 -56.828125 71.34375 -61.796875 C 71.769531 -66.773438 71.664062 -71.613281 71.03125 -76.3125 C 70.382812 -81.019531 68.535156 -84.867188 65.484375 -87.859375 C 62.441406 -90.847656 58.410156 -92.289062 53.390625 -92.1875 C 50.609375 -92.1875 47.90625 -91.488281 45.28125 -90.09375 C 42.664062 -88.707031 40.503906 -86.894531 38.796875 -84.65625 C 36.867188 -81.976562 35.476562 -78.769531 34.625 -75.03125 C 33.769531 -71.289062 33.128906 -67.816406 32.703125 -64.609375 C 31.742188 -57.453125 32.117188 -50.398438 33.828125 -43.453125 C 34.359375 -41.421875 35.078125 -39.390625 35.984375 -37.359375 C 36.898438 -35.328125 38.210938 -33.671875 39.921875 -32.390625 C 42.703125 -30.359375 45.878906 -29.632812 49.453125 -30.21875 C 53.035156 -30.8125 56.164062 -32.226562 58.84375 -34.46875 C 59.164062 -34.789062 59.539062 -35.164062 59.96875 -35.59375 Z M 59.96875 -35.59375 "/></g></g></g><g fill="#ef8535" fill-opacity="1"><g transform="translate(785.468133, 289.075282)"><g><path d="M 118.484375 -87.859375 C 120.410156 -71.609375 119.769531 -55.414062 116.5625 -39.28125 C 115.59375 -34.894531 114.46875 -30.40625 113.1875 -25.8125 C 111.90625 -21.21875 110.195312 -16.78125 108.0625 -12.5 C 105.925781 -8.226562 103.203125 -4.488281 99.890625 -1.28125 C 96.578125 1.925781 92.804688 4.273438 88.578125 5.765625 C 84.359375 7.265625 80.054688 7.773438 75.671875 7.296875 C 71.285156 6.816406 67.171875 5.238281 63.328125 2.5625 C 61.191406 1.070312 59.320312 -0.6875 57.71875 -2.71875 C 54.082031 0.0507812 50.097656 1.914062 45.765625 2.875 C 41.441406 3.84375 37.113281 3.578125 32.78125 2.078125 C 28.457031 0.585938 24.425781 -2.398438 20.6875 -6.890625 C 17.6875 -10.628906 15.382812 -14.820312 13.78125 -19.46875 C 12.1875 -24.125 11.039062 -28.910156 10.34375 -33.828125 C 9.644531 -38.742188 9.082031 -43.5 8.65625 -48.09375 C 7.90625 -56.113281 7.796875 -64.128906 8.328125 -72.140625 C 8.867188 -80.160156 9.890625 -88.125 11.390625 -96.03125 C 11.921875 -99.132812 13.117188 -101.378906 14.984375 -102.765625 C 16.859375 -104.160156 19.023438 -104.828125 21.484375 -104.765625 C 23.941406 -104.710938 26.238281 -104.070312 28.375 -102.84375 C 30.507812 -101.613281 32.191406 -99.875 33.421875 -97.625 C 34.648438 -95.382812 35 -92.71875 34.46875 -89.625 C 32.96875 -81.5 32.140625 -73.265625 31.984375 -64.921875 C 31.828125 -56.585938 32.441406 -48.304688 33.828125 -40.078125 C 34.046875 -38.691406 34.367188 -36.582031 34.796875 -33.75 C 35.222656 -30.914062 35.890625 -28.210938 36.796875 -25.640625 C 37.703125 -23.078125 39.007812 -21.53125 40.71875 -21 C 42.320312 -20.46875 43.628906 -20.65625 44.640625 -21.5625 C 45.660156 -22.46875 46.4375 -23.722656 46.96875 -25.328125 C 47.507812 -26.929688 47.882812 -28.5625 48.09375 -30.21875 C 48.3125 -31.875 48.367188 -33.1875 48.265625 -34.15625 C 48.046875 -37.351562 48.710938 -39.859375 50.265625 -41.671875 C 51.816406 -43.492188 53.738281 -44.695312 56.03125 -45.28125 C 58.332031 -45.875 60.6875 -45.875 63.09375 -45.28125 C 65.5 -44.695312 67.582031 -43.46875 69.34375 -41.59375 C 71.101562 -39.726562 72.09375 -37.25 72.3125 -34.15625 C 72.3125 -32.976562 72.390625 -31.347656 72.546875 -29.265625 C 72.703125 -27.179688 73.019531 -25.09375 73.5 -23 C 73.988281 -20.914062 74.789062 -19.234375 75.90625 -17.953125 C 77.03125 -16.671875 78.554688 -16.296875 80.484375 -16.828125 C 82.617188 -17.367188 84.351562 -18.785156 85.6875 -21.078125 C 87.03125 -23.378906 88.070312 -25.863281 88.8125 -28.53125 C 89.5625 -31.207031 90.207031 -33.398438 90.75 -35.109375 C 93.207031 -43.765625 94.703125 -52.5 95.234375 -61.3125 C 95.765625 -70.132812 95.5 -78.984375 94.4375 -87.859375 C 94.113281 -90.960938 94.644531 -93.421875 96.03125 -95.234375 C 97.425781 -97.046875 99.269531 -98.242188 101.5625 -98.828125 C 103.863281 -99.421875 106.242188 -99.394531 108.703125 -98.75 C 111.160156 -98.113281 113.320312 -96.882812 115.1875 -95.0625 C 117.0625 -93.25 118.160156 -90.847656 118.484375 -87.859375 Z M 118.484375 -87.859375 "/></g></g></g><g fill="#ef8535" fill-opacity="1"><g transform="translate(913.053786, 289.075282)"><g><path d="M 69.421875 -99.25 C 74.867188 -94.332031 79.085938 -88.476562 82.078125 -81.6875 C 85.078125 -74.894531 86.148438 -67.757812 85.296875 -60.28125 C 84.546875 -54.082031 82.539062 -48.285156 79.28125 -42.890625 C 76.019531 -37.492188 72.039062 -32.816406 67.34375 -28.859375 C 62.101562 -24.367188 55.925781 -20.757812 48.8125 -18.03125 C 41.707031 -15.3125 34.894531 -12.878906 28.375 -10.734375 C 26.5625 -10.097656 24.71875 -9.59375 22.84375 -9.21875 C 20.976562 -8.84375 19.132812 -8.765625 17.3125 -8.984375 C 14.75 -9.296875 12.53125 -10.492188 10.65625 -12.578125 C 8.789062 -14.671875 7.910156 -17 8.015625 -19.5625 C 8.765625 -48.632812 10.207031 -77.757812 12.34375 -106.9375 C 12.5625 -110.25 13.65625 -112.570312 15.625 -113.90625 C 17.601562 -115.25 19.957031 -115.945312 22.6875 -116 C 25.414062 -116.050781 28.0625 -115.863281 30.625 -115.4375 C 32.125 -115.21875 33.515625 -115.003906 34.796875 -114.796875 C 41.097656 -113.515625 47.1875 -111.722656 53.0625 -109.421875 C 58.945312 -107.128906 64.398438 -103.738281 69.421875 -99.25 Z M 60.4375 -59 C 61.9375 -63.269531 62.175781 -67.171875 61.15625 -70.703125 C 60.144531 -74.234375 58.300781 -77.28125 55.625 -79.84375 C 52.957031 -82.40625 49.804688 -84.539062 46.171875 -86.25 C 42.535156 -87.96875 38.847656 -89.253906 35.109375 -90.109375 C 34.046875 -72.578125 33.191406 -55.15625 32.546875 -37.84375 C 36.503906 -39.125 40.328125 -40.59375 44.015625 -42.25 C 47.703125 -43.90625 50.988281 -46.039062 53.875 -48.65625 C 56.757812 -51.28125 58.945312 -54.726562 60.4375 -59 Z M 60.4375 -59 "/></g></g></g><g fill="#ef8535" fill-opacity="1"><g transform="translate(1006.659365, 289.075282)"><g><path d="M 59.796875 -69.265625 C 65.785156 -65.203125 70.515625 -59.910156 73.984375 -53.390625 C 77.460938 -46.867188 78.828125 -39.921875 78.078125 -32.546875 C 77.328125 -26.128906 75.132812 -20.625 71.5 -16.03125 C 67.875 -11.4375 63.414062 -7.851562 58.125 -5.28125 C 52.832031 -2.71875 47.21875 -1.300781 41.28125 -1.03125 C 35.351562 -0.769531 29.660156 -1.757812 24.203125 -4 C 18.753906 -6.25 14.160156 -9.882812 10.421875 -14.90625 C 8.492188 -17.363281 7.691406 -19.738281 8.015625 -22.03125 C 8.335938 -24.332031 9.328125 -26.335938 10.984375 -28.046875 C 12.640625 -29.765625 14.695312 -30.96875 17.15625 -31.65625 C 19.613281 -32.351562 22.097656 -32.378906 24.609375 -31.734375 C 27.117188 -31.097656 29.285156 -29.550781 31.109375 -27.09375 C 31.960938 -25.914062 33.5625 -25.242188 35.90625 -25.078125 C 38.257812 -24.921875 40.613281 -25.03125 42.96875 -25.40625 C 45.320312 -25.78125 46.976562 -26.179688 47.9375 -26.609375 C 50.1875 -27.679688 51.867188 -29.257812 52.984375 -31.34375 C 54.109375 -33.425781 54.507812 -35.695312 54.1875 -38.15625 C 53.863281 -41.144531 52.796875 -43.601562 50.984375 -45.53125 C 49.171875 -47.457031 47.003906 -49.140625 44.484375 -50.578125 C 41.972656 -52.023438 39.4375 -53.414062 36.875 -54.75 C 34.3125 -56.082031 32.066406 -57.550781 30.140625 -59.15625 C 24.796875 -63.863281 21.535156 -68.96875 20.359375 -74.46875 C 19.179688 -79.976562 19.582031 -85.484375 21.5625 -90.984375 C 23.539062 -96.492188 26.613281 -101.488281 30.78125 -105.96875 C 34.945312 -110.457031 39.703125 -113.929688 45.046875 -116.390625 C 47.929688 -117.785156 50.601562 -118.160156 53.0625 -117.515625 C 55.519531 -116.878906 57.628906 -115.675781 59.390625 -113.90625 C 61.160156 -112.144531 62.363281 -110.085938 63 -107.734375 C 63.644531 -105.390625 63.539062 -103.117188 62.6875 -100.921875 C 61.832031 -98.734375 60.015625 -97 57.234375 -95.71875 C 55.421875 -94.863281 53.3125 -93.6875 50.90625 -92.1875 C 48.5 -90.6875 46.519531 -88.894531 44.96875 -86.8125 C 43.414062 -84.726562 43.125 -82.40625 44.09375 -79.84375 C 44.625 -78.132812 45.878906 -76.664062 47.859375 -75.4375 C 49.835938 -74.207031 51.945312 -73.109375 54.1875 -72.140625 C 56.4375 -71.179688 58.304688 -70.222656 59.796875 -69.265625 Z M 59.796875 -69.265625 "/></g></g></g><g fill="#ef8535" fill-opacity="1"><g transform="translate(1092.891885, 289.075282)"><g><path d="M 89.140625 -97.953125 C 91.703125 -93.785156 93.460938 -89.109375 94.421875 -83.921875 C 95.390625 -78.742188 95.820312 -73.507812 95.71875 -68.21875 C 95.613281 -62.925781 95.1875 -57.984375 94.4375 -53.390625 C 93.363281 -46.335938 91.171875 -39.65625 87.859375 -33.34375 C 84.546875 -27.039062 80.109375 -21.59375 74.546875 -17 C 69.203125 -12.613281 63.003906 -9.40625 55.953125 -7.375 C 48.898438 -5.34375 42.003906 -5.394531 35.265625 -7.53125 C 30.773438 -8.925781 26.875 -11.222656 23.5625 -14.421875 C 20.25 -17.628906 17.46875 -21.289062 15.21875 -25.40625 C 12.976562 -29.519531 11.328125 -33.71875 10.265625 -38 C 8.984375 -42.695312 8.234375 -48.117188 8.015625 -54.265625 C 7.804688 -60.410156 8.234375 -66.691406 9.296875 -73.109375 C 10.367188 -79.523438 12.132812 -85.507812 14.59375 -91.0625 C 17.050781 -96.625 20.363281 -101.222656 24.53125 -104.859375 C 28.800781 -109.234375 33.929688 -112.328125 39.921875 -114.140625 C 45.910156 -115.960938 52.054688 -116.578125 58.359375 -115.984375 C 64.660156 -115.398438 70.535156 -113.585938 75.984375 -110.546875 C 81.441406 -107.503906 85.828125 -103.304688 89.140625 -97.953125 Z M 59.96875 -35.59375 C 63.59375 -39.007812 66.285156 -42.988281 68.046875 -47.53125 C 69.816406 -52.070312 70.914062 -56.828125 71.34375 -61.796875 C 71.769531 -66.773438 71.664062 -71.613281 71.03125 -76.3125 C 70.382812 -81.019531 68.535156 -84.867188 65.484375 -87.859375 C 62.441406 -90.847656 58.410156 -92.289062 53.390625 -92.1875 C 50.609375 -92.1875 47.90625 -91.488281 45.28125 -90.09375 C 42.664062 -88.707031 40.503906 -86.894531 38.796875 -84.65625 C 36.867188 -81.976562 35.476562 -78.769531 34.625 -75.03125 C 33.769531 -71.289062 33.128906 -67.816406 32.703125 -64.609375 C 31.742188 -57.453125 32.117188 -50.398438 33.828125 -43.453125 C 34.359375 -41.421875 35.078125 -39.390625 35.984375 -37.359375 C 36.898438 -35.328125 38.210938 -33.671875 39.921875 -32.390625 C 42.703125 -30.359375 45.878906 -29.632812 49.453125 -30.21875 C 53.035156 -30.8125 56.164062 -32.226562 58.84375 -34.46875 C 59.164062 -34.789062 59.539062 -35.164062 59.96875 -35.59375 Z M 59.96875 -35.59375 "/></g></g></g><g fill="#ef8535" fill-opacity="1"><g transform="translate(1196.595303, 289.075282)"><g><path d="M 70.703125 -51.78125 C 73.804688 -52 76.265625 -51.382812 78.078125 -49.9375 C 79.898438 -48.5 81.128906 -46.601562 81.765625 -44.25 C 82.410156 -41.894531 82.410156 -39.488281 81.765625 -37.03125 C 81.128906 -34.570312 79.875 -32.460938 78 -30.703125 C 76.125 -28.941406 73.691406 -27.953125 70.703125 -27.734375 C 62.578125 -27.097656 54.585938 -26.054688 46.734375 -24.609375 C 38.878906 -23.171875 31.050781 -21.328125 23.25 -19.078125 C 21 -18.429688 18.644531 -18.5625 16.1875 -19.46875 C 13.726562 -20.382812 11.695312 -21.832031 10.09375 -23.8125 C 8.5 -25.789062 7.804688 -28.113281 8.015625 -30.78125 C 9.296875 -43.289062 10.550781 -55.796875 11.78125 -68.296875 C 13.007812 -80.804688 14.210938 -93.3125 15.390625 -105.8125 C 15.710938 -108.8125 16.78125 -111.242188 18.59375 -113.109375 C 20.414062 -114.984375 22.554688 -116.210938 25.015625 -116.796875 C 27.472656 -117.390625 29.847656 -117.390625 32.140625 -116.796875 C 34.441406 -116.210938 36.3125 -114.984375 37.75 -113.109375 C 39.195312 -111.242188 39.757812 -108.8125 39.4375 -105.8125 C 38.476562 -95.875 37.515625 -85.960938 36.546875 -76.078125 C 35.585938 -66.191406 34.628906 -56.332031 33.671875 -46.5 C 45.742188 -49.0625 58.085938 -50.820312 70.703125 -51.78125 Z M 70.703125 -51.78125 "/></g></g></g><g fill="#ef8535" fill-opacity="1"><g transform="translate(1286.834887, 289.075282)"><g><path d="M 70.21875 -84.96875 C 71.289062 -87.851562 72.945312 -89.9375 75.1875 -91.21875 C 77.4375 -92.507812 79.816406 -93.125 82.328125 -93.0625 C 84.835938 -93.007812 87.132812 -92.367188 89.21875 -91.140625 C 91.300781 -89.910156 92.796875 -88.226562 93.703125 -86.09375 C 94.617188 -83.957031 94.539062 -81.445312 93.46875 -78.5625 C 83.53125 -52.15625 72.414062 -26.503906 60.125 -1.609375 C 58.726562 1.273438 56.664062 3.09375 53.9375 3.84375 C 51.21875 4.59375 48.492188 4.457031 45.765625 3.4375 C 43.046875 2.425781 40.9375 0.742188 39.4375 -1.609375 C 34.09375 -9.835938 29.679688 -18.65625 26.203125 -28.0625 C 22.734375 -37.46875 19.660156 -47.03125 16.984375 -56.75 C 14.316406 -66.476562 11.539062 -75.941406 8.65625 -85.140625 C 7.695312 -88.128906 7.722656 -90.71875 8.734375 -92.90625 C 9.753906 -95.101562 11.332031 -96.816406 13.46875 -98.046875 C 15.601562 -99.273438 17.898438 -99.890625 20.359375 -99.890625 C 22.816406 -99.890625 25.113281 -99.21875 27.25 -97.875 C 29.394531 -96.539062 30.894531 -94.429688 31.75 -91.546875 C 34.632812 -82.460938 37.382812 -73.054688 40 -63.328125 C 42.625 -53.597656 45.75 -44.140625 49.375 -34.953125 C 53.125 -43.179688 56.734375 -51.460938 60.203125 -59.796875 C 63.671875 -68.140625 67.007812 -76.53125 70.21875 -84.96875 Z M 70.21875 -84.96875 "/></g></g></g><g fill="#ef8535" fill-opacity="1"><g transform="translate(1389.095816, 289.075282)"><g><path d="M 66.859375 -33.828125 C 69.953125 -33.722656 72.4375 -32.8125 74.3125 -31.09375 C 76.1875 -29.382812 77.414062 -27.328125 78 -24.921875 C 78.582031 -22.523438 78.582031 -20.148438 78 -17.796875 C 77.414062 -15.441406 76.1875 -13.488281 74.3125 -11.9375 C 72.4375 -10.394531 69.953125 -9.675781 66.859375 -9.78125 C 59.585938 -10.101562 52.316406 -10.078125 45.046875 -9.703125 C 37.785156 -9.328125 30.519531 -8.550781 23.25 -7.375 C 21 -7.050781 18.644531 -7.289062 16.1875 -8.09375 C 13.726562 -8.894531 11.671875 -10.203125 10.015625 -12.015625 C 8.359375 -13.835938 7.742188 -16.191406 8.171875 -19.078125 C 9.992188 -33.828125 12 -48.578125 14.1875 -63.328125 C 16.375 -78.078125 18.753906 -92.828125 21.328125 -107.578125 C 21.640625 -109.398438 22.28125 -110.953125 23.25 -112.234375 C 24.101562 -113.722656 25.332031 -114.972656 26.9375 -115.984375 C 28.539062 -117.003906 30.519531 -117.570312 32.875 -117.6875 C 44.414062 -118 55.957031 -117.785156 67.5 -117.046875 C 70.59375 -116.828125 73.078125 -115.832031 74.953125 -114.0625 C 76.828125 -112.300781 78.054688 -110.21875 78.640625 -107.8125 C 79.222656 -105.414062 79.222656 -103.039062 78.640625 -100.6875 C 78.054688 -98.332031 76.828125 -96.40625 74.953125 -94.90625 C 73.078125 -93.414062 70.59375 -92.773438 67.5 -92.984375 C 59.59375 -93.523438 51.519531 -93.796875 43.28125 -93.796875 C 42.75 -90.691406 42.21875 -87.585938 41.6875 -84.484375 C 41.15625 -81.390625 40.675781 -78.289062 40.25 -75.1875 C 44.625 -75.082031 48.84375 -74.816406 52.90625 -74.390625 C 56.113281 -74.066406 58.921875 -72.863281 61.328125 -70.78125 C 63.734375 -68.695312 64.9375 -65.894531 64.9375 -62.375 C 64.9375 -60.34375 64.375 -58.363281 63.25 -56.4375 C 62.125 -54.507812 60.648438 -52.957031 58.828125 -51.78125 C 57.015625 -50.601562 55.039062 -50.125 52.90625 -50.34375 C 47.457031 -50.875 42.007812 -51.140625 36.5625 -51.140625 C 36.125 -48.148438 35.691406 -45.101562 35.265625 -42 C 34.835938 -38.90625 34.410156 -35.863281 33.984375 -32.875 C 39.441406 -33.40625 44.894531 -33.75 50.34375 -33.90625 C 55.789062 -34.070312 61.296875 -34.046875 66.859375 -33.828125 Z M 66.859375 -33.828125 "/></g></g></g><path fill="#ae5630" d="M 305.828125 222.027344 L 368.671875 220.914062 L 360.6875 114.585938 C 360.347656 110.132812 356.964844 106.515625 352.527344 105.902344 L 310.578125 100.097656 C 310.578125 100.097656 326.058594 45.027344 281.953125 51.210938 C 237.820312 57.421875 250.984375 106.9375 250.984375 106.9375 L 207.566406 106.9375 L 207.589844 136.878906 C 213.023438 136.402344 225.597656 136.125 234.347656 142.652344 C 239.375 146.378906 242.332031 151.722656 243.191406 158.523438 C 244.007812 165.179688 242.464844 171.074219 238.597656 176.023438 C 231.300781 185.296875 217.84375 188.484375 212.746094 189.390625 L 212.746094 220.171875 C 212.746094 220.785156 212.679688 221.398438 212.515625 221.992188 L 252.757812 221.992188 L 252.503906 224.496094 C 252.457031 224.992188 247.683594 274.597656 279.199219 279.605469 C 285.3125 280.585938 290.246094 279.238281 294.300781 275.539062 C 308.625 262.375 306.035156 224.8125 305.984375 224.429688 L 305.828125 222.019531 Z M 305.828125 222.027344 " fill-opacity="1" fill-rule="nonzero"/><g clip-path="url(#5b165a1b3d)"><path fill="#ef8535" d="M 408.855469 338.75 C 396.855469 344.957031 379.734375 342.359375 372.457031 335.878906 L 368.972656 332.792969 L 364.929688 396.566406 L 220.171875 404.523438 C 222.035156 402.230469 223.058594 399.34375 223.058594 396.363281 L 223.058594 355.824219 C 230.085938 356.195312 249.203125 355.1875 258.453125 334.664062 C 264.066406 322.25 263.976562 311.3125 258.183594 303.882812 C 253.132812 297.355469 244.433594 294.632812 234.332031 296.382812 L 217.625 299.292969 L 217.46875 282.199219 L 216.996094 233.933594 C 216.945312 231.25 216.128906 228.703125 214.632812 226.5625 L 247.808594 226.5625 C 247.308594 236.433594 247.21875 272.507812 271.429688 282.199219 C 273.585938 283.0625 275.929688 283.71875 278.496094 284.125 C 283.816406 284.96875 288.570312 284.332031 292.707031 282.199219 C 294.367188 281.332031 295.933594 280.246094 297.386719 278.90625 C 311.214844 266.199219 311.027344 235.410156 310.640625 226.519531 L 365.769531 225.539062 L 371 282.199219 L 371.269531 285.246094 L 373.949219 284.378906 C 374.179688 284.289062 396.070312 277.402344 410.214844 286.519531 C 416.945312 290.859375 420.925781 298.230469 422.078125 308.460938 C 424.144531 326.738281 416.03125 335.039062 408.847656 338.765625 Z M 408.855469 338.75 " fill-opacity="1" fill-rule="nonzero"/></g><g clip-path="url(#ab00e8dfd7)"><path fill="#ae5630" d="M 208.496094 227.027344 C 207.792969 227.371094 207.019531 227.617188 206.226562 227.753906 C 205.929688 227.804688 205.613281 227.820312 205.292969 227.820312 C 158.507812 228.816406 90.800781 233.6875 71.160156 235.164062 C 70.980469 235.191406 70.792969 235.191406 70.613281 235.191406 C 69.453125 235.191406 68.316406 234.921875 67.269531 234.414062 C 66.019531 235.933594 65.269531 237.871094 65.292969 239.988281 L 65.996094 303.035156 L 63.40625 302.691406 C 62.949219 302.625 17.613281 297.117188 14.09375 323.199219 C 13.316406 328.835938 14.617188 333.570312 18.023438 337.679688 C 28.34375 350.089844 54.261719 351.542969 54.515625 351.570312 L 56.671875 351.683594 L 56.671875 392.539062 C 56.671875 397.269531 60.511719 401.109375 65.242188 401.109375 L 98.507812 401.109375 C 101.097656 401.109375 103.53125 399.949219 105.167969 397.921875 C 106.785156 395.921875 107.414062 393.355469 106.875 390.832031 C 102.167969 368.320312 110.558594 353.382812 130.519531 348.773438 C 133.160156 348.160156 135.660156 347.867188 137.996094 347.867188 C 143.25 347.867188 147.703125 349.410156 151.300781 352.507812 C 161.171875 360.988281 161.988281 379.0625 160.941406 392.726562 C 160.785156 395.023438 161.511719 397.253906 163.007812 399 C 164.488281 400.726562 166.578125 401.769531 168.851562 401.933594 L 209.339844 404.910156 C 209.8125 404.957031 210.269531 404.933594 210.726562 404.882812 C 211.519531 404.835938 212.273438 404.65625 213 404.386719 C 213.792969 404.066406 214.542969 403.660156 215.230469 403.113281 C 215.433594 402.972656 215.613281 402.816406 215.800781 402.636719 C 217.574219 401.003906 218.53125 398.773438 218.53125 396.363281 L 218.53125 350.597656 L 221.210938 351.070312 C 222.140625 351.226562 244.375 354.820312 254.335938 332.792969 C 259.132812 322.152344 259.246094 312.625 254.605469 306.644531 C 250.625 301.503906 243.507812 299.390625 235.117188 300.84375 L 213.128906 304.683594 L 212.65625 255.960938 L 212.453125 233.957031 C 212.425781 232.160156 211.863281 230.433594 210.816406 228.996094 C 210.5625 228.652344 210.292969 228.316406 209.976562 228.015625 C 209.949219 227.96875 209.910156 227.925781 209.859375 227.878906 C 209.476562 227.507812 209.085938 227.199219 208.660156 226.921875 L 208.503906 227.011719 Z M 208.496094 227.027344 " fill-opacity="1" fill-rule="nonzero"/></g><path fill="#ef8535" d="M 207.835938 221.570312 C 208.089844 221.160156 208.203125 220.679688 208.203125 220.179688 L 208.203125 185.421875 L 210.203125 185.167969 C 210.382812 185.167969 227.28125 183.074219 235.027344 173.207031 C 238.117188 169.25 239.351562 164.496094 238.664062 159.085938 C 237.984375 153.5625 235.617188 149.265625 231.660156 146.304688 C 221.996094 139.097656 205.855469 141.648438 205.695312 141.691406 L 203.054688 142.121094 L 203.003906 106.929688 L 203.003906 105.453125 C 203.003906 104.609375 202.664062 103.816406 202.074219 103.222656 C 201.484375 102.625 200.800781 102.378906 199.894531 102.355469 C 177.480469 102.609375 101.855469 103.859375 70.097656 109.105469 C 68.59375 109.355469 67.507812 110.648438 67.507812 112.175781 L 67.507812 227.550781 C 67.507812 227.84375 67.554688 228.121094 67.621094 228.367188 C 67.761719 228.9375 68.054688 229.414062 68.488281 229.820312 C 68.640625 229.976562 68.832031 230.117188 69.035156 230.207031 C 69.558594 230.523438 70.171875 230.664062 70.808594 230.640625 C 90.476562 229.160156 158.21875 224.273438 205.128906 223.269531 L 205.179688 223.269531 C 205.472656 223.316406 205.75 223.332031 205.996094 223.40625 C 206.046875 223.433594 206.085938 223.433594 206.136719 223.457031 L 206.109375 223.089844 C 206.699219 222.882812 207.222656 222.5 207.589844 221.992188 L 207.84375 221.5625 Z M 207.835938 221.570312 " fill-opacity="1" fill-rule="nonzero"/></svg>