<svg xmlns="http://www.w3.org/2000/svg" xmlns:xlink="http://www.w3.org/1999/xlink" width="500" zoomAndPan="magnify" viewBox="0 0 375 374.999991" height="500" preserveAspectRatio="xMidYMid meet" version="1.0"><defs><g/><clipPath id="2a12963857"><path d="M 185 139 L 281 139 L 281 220.699219 L 185 220.699219 Z M 185 139 " clip-rule="nonzero"/></clipPath><clipPath id="b52278432f"><path d="M 94 139 L 206 139 L 206 220.699219 L 94 220.699219 Z M 94 139 " clip-rule="nonzero"/></clipPath></defs><path fill="#ae5630" d="M 227.257812 137.445312 L 255.9375 136.9375 L 252.292969 88.410156 C 252.136719 86.378906 250.59375 84.726562 248.566406 84.445312 L 229.421875 81.796875 C 229.421875 81.796875 236.488281 56.664062 216.359375 59.488281 C 196.21875 62.320312 202.226562 84.917969 202.226562 84.917969 L 182.410156 84.917969 L 182.421875 98.582031 C 184.902344 98.367188 190.640625 98.238281 194.632812 101.21875 C 196.925781 102.921875 198.277344 105.359375 198.667969 108.460938 C 199.042969 111.5 198.335938 114.191406 196.574219 116.449219 C 193.242188 120.683594 187.101562 122.136719 184.773438 122.550781 L 184.773438 136.597656 C 184.773438 136.878906 184.746094 137.15625 184.667969 137.429688 L 203.035156 137.429688 L 202.917969 138.570312 C 202.898438 138.796875 200.71875 161.4375 215.101562 163.722656 C 217.890625 164.171875 220.144531 163.554688 221.996094 161.867188 C 228.53125 155.859375 227.347656 138.714844 227.328125 138.539062 L 227.257812 137.441406 Z M 227.257812 137.445312 " fill-opacity="1" fill-rule="nonzero"/><g clip-path="url(#2a12963857)"><path fill="#ef8535" d="M 274.277344 190.714844 C 268.796875 193.550781 260.984375 192.363281 257.664062 189.40625 L 256.074219 187.996094 L 254.230469 217.101562 L 188.164062 220.734375 C 189.015625 219.6875 189.480469 218.371094 189.480469 217.007812 L 189.480469 198.507812 C 192.6875 198.675781 201.414062 198.21875 205.632812 188.851562 C 208.195312 183.1875 208.15625 178.191406 205.511719 174.800781 C 203.207031 171.824219 199.234375 170.582031 194.625 171.378906 L 187 172.707031 L 186.929688 164.90625 L 186.714844 142.878906 C 186.691406 141.65625 186.316406 140.492188 185.636719 139.515625 L 200.777344 139.515625 C 200.546875 144.019531 200.507812 160.484375 211.554688 164.90625 C 212.542969 165.300781 213.609375 165.597656 214.78125 165.785156 C 217.210938 166.167969 219.378906 165.878906 221.265625 164.90625 C 222.023438 164.511719 222.738281 164.015625 223.402344 163.402344 C 229.714844 157.605469 229.628906 143.550781 229.453125 139.496094 L 254.613281 139.046875 L 257 164.90625 L 257.121094 166.296875 L 258.347656 165.902344 C 258.449219 165.859375 268.441406 162.714844 274.894531 166.878906 C 277.96875 168.859375 279.785156 172.222656 280.308594 176.890625 C 281.253906 185.234375 277.550781 189.023438 274.273438 190.722656 Z M 274.277344 190.714844 " fill-opacity="1" fill-rule="nonzero"/></g><g clip-path="url(#b52278432f)"><path fill="#ae5630" d="M 182.835938 139.726562 C 182.515625 139.882812 182.160156 139.996094 181.796875 140.058594 C 181.664062 140.082031 181.519531 140.089844 181.375 140.089844 C 160.019531 140.542969 129.121094 142.765625 120.15625 143.441406 C 120.074219 143.453125 119.988281 143.453125 119.90625 143.453125 C 119.375 143.453125 118.859375 143.328125 118.378906 143.097656 C 117.808594 143.792969 117.46875 144.675781 117.476562 145.640625 L 117.800781 174.414062 L 116.617188 174.257812 C 116.40625 174.226562 95.71875 171.714844 94.113281 183.617188 C 93.757812 186.191406 94.351562 188.351562 95.90625 190.226562 C 100.617188 195.890625 112.445312 196.554688 112.558594 196.566406 L 113.542969 196.617188 L 113.542969 215.261719 C 113.542969 217.421875 115.296875 219.175781 117.457031 219.175781 L 132.636719 219.175781 C 133.820312 219.175781 134.929688 218.644531 135.675781 217.722656 C 136.414062 216.808594 136.703125 215.636719 136.457031 214.484375 C 134.308594 204.210938 138.136719 197.394531 147.246094 195.289062 C 148.453125 195.011719 149.59375 194.875 150.660156 194.875 C 153.058594 194.875 155.089844 195.582031 156.730469 196.996094 C 161.234375 200.867188 161.609375 209.113281 161.132812 215.347656 C 161.0625 216.398438 161.390625 217.414062 162.074219 218.214844 C 162.75 219 163.703125 219.476562 164.742188 219.550781 L 183.21875 220.910156 C 183.433594 220.933594 183.644531 220.921875 183.851562 220.898438 C 184.214844 220.875 184.558594 220.792969 184.890625 220.671875 C 185.25 220.527344 185.59375 220.339844 185.90625 220.089844 C 186 220.027344 186.082031 219.953125 186.167969 219.871094 C 186.976562 219.128906 187.414062 218.109375 187.414062 217.007812 L 187.414062 196.121094 L 188.636719 196.339844 C 189.0625 196.410156 199.210938 198.050781 203.753906 187.996094 C 205.945312 183.140625 205.996094 178.792969 203.878906 176.0625 C 202.0625 173.71875 198.8125 172.75 194.984375 173.414062 L 184.949219 175.167969 L 184.734375 152.929688 L 184.640625 142.890625 C 184.628906 142.070312 184.371094 141.28125 183.894531 140.625 C 183.777344 140.46875 183.65625 140.316406 183.511719 140.179688 C 183.5 140.15625 183.480469 140.136719 183.457031 140.113281 C 183.28125 139.945312 183.101562 139.804688 182.910156 139.679688 L 182.839844 139.71875 Z M 182.835938 139.726562 " fill-opacity="1" fill-rule="nonzero"/></g><path fill="#ef8535" d="M 182.53125 137.234375 C 182.648438 137.050781 182.699219 136.828125 182.699219 136.601562 L 182.699219 120.738281 L 183.613281 120.621094 C 183.695312 120.621094 191.40625 119.667969 194.941406 115.164062 C 196.351562 113.359375 196.917969 111.1875 196.601562 108.71875 C 196.292969 106.199219 195.210938 104.238281 193.40625 102.886719 C 188.996094 99.597656 181.628906 100.761719 181.554688 100.78125 L 180.351562 100.976562 L 180.328125 84.917969 L 180.328125 84.242188 C 180.328125 83.855469 180.171875 83.496094 179.902344 83.222656 C 179.636719 82.949219 179.320312 82.839844 178.90625 82.828125 C 168.679688 82.941406 134.167969 83.515625 119.671875 85.90625 C 118.984375 86.023438 118.488281 86.613281 118.488281 87.308594 L 118.488281 139.964844 C 118.488281 140.097656 118.511719 140.226562 118.542969 140.339844 C 118.605469 140.597656 118.738281 140.816406 118.9375 141.003906 C 119.007812 141.074219 119.09375 141.136719 119.1875 141.175781 C 119.425781 141.324219 119.703125 141.386719 119.996094 141.375 C 128.972656 140.699219 159.890625 138.46875 181.296875 138.011719 L 181.320312 138.011719 C 181.457031 138.035156 181.582031 138.042969 181.695312 138.074219 C 181.714844 138.085938 181.734375 138.085938 181.757812 138.097656 L 181.746094 137.929688 C 182.015625 137.835938 182.253906 137.660156 182.421875 137.429688 L 182.535156 137.230469 Z M 182.53125 137.234375 " fill-opacity="1" fill-rule="nonzero"/><g fill="#ef8535" fill-opacity="0.4"><g transform="translate(5.109601, 304.507026)"><g><path d="M 26.671875 -14.375 C 27.785156 -14.695312 28.75 -14.65625 29.5625 -14.25 C 30.382812 -13.851562 31.023438 -13.253906 31.484375 -12.453125 C 31.941406 -11.660156 32.179688 -10.804688 32.203125 -9.890625 C 32.222656 -8.972656 31.984375 -8.125 31.484375 -7.34375 C 30.984375 -6.5625 30.175781 -6.03125 29.0625 -5.75 C 27.019531 -5.15625 24.929688 -4.71875 22.796875 -4.4375 C 20.660156 -4.15625 18.539062 -4.144531 16.4375 -4.40625 C 14.34375 -4.664062 12.335938 -5.332031 10.421875 -6.40625 C 7.953125 -7.84375 6.066406 -9.800781 4.765625 -12.28125 C 3.460938 -14.757812 2.875 -17.414062 3 -20.25 C 3.15625 -23.050781 3.851562 -25.738281 5.09375 -28.3125 C 6.332031 -30.882812 7.976562 -33.148438 10.03125 -35.109375 C 12.09375 -37.066406 14.429688 -38.570312 17.046875 -39.625 C 19.660156 -40.6875 22.390625 -41.117188 25.234375 -40.921875 C 26.390625 -40.804688 27.316406 -40.414062 28.015625 -39.75 C 28.710938 -39.09375 29.171875 -38.316406 29.390625 -37.421875 C 29.609375 -36.523438 29.609375 -35.632812 29.390625 -34.75 C 29.171875 -33.875 28.710938 -33.15625 28.015625 -32.59375 C 27.316406 -32.039062 26.390625 -31.820312 25.234375 -31.9375 C 23.148438 -32.09375 21.175781 -31.703125 19.3125 -30.765625 C 17.457031 -29.828125 15.890625 -28.519531 14.609375 -26.84375 C 13.335938 -25.164062 12.523438 -23.304688 12.171875 -21.265625 C 11.804688 -19.429688 11.894531 -17.960938 12.4375 -16.859375 C 12.976562 -15.765625 13.785156 -14.957031 14.859375 -14.4375 C 15.941406 -13.914062 17.171875 -13.59375 18.546875 -13.46875 C 19.921875 -13.351562 21.316406 -13.394531 22.734375 -13.59375 C 24.160156 -13.800781 25.472656 -14.0625 26.671875 -14.375 Z M 26.671875 -14.375 "/></g></g></g><g fill="#ef8535" fill-opacity="0.4"><g transform="translate(40.337889, 304.507026)"><g><path d="M 34.09375 -5.625 C 34.769531 -4.664062 35.046875 -3.757812 34.921875 -2.90625 C 34.804688 -2.050781 34.429688 -1.300781 33.796875 -0.65625 C 33.160156 -0.0195312 32.390625 0.425781 31.484375 0.6875 C 30.585938 0.945312 29.671875 0.945312 28.734375 0.6875 C 27.796875 0.425781 26.988281 -0.160156 26.3125 -1.078125 C 24.507812 -3.554688 22.5 -5.832031 20.28125 -7.90625 C 18.0625 -9.988281 15.675781 -11.867188 13.125 -13.546875 C 12.925781 -11.179688 12.734375 -8.8125 12.546875 -6.4375 C 12.367188 -4.0625 12.179688 -1.695312 11.984375 0.65625 C 11.898438 1.8125 11.53125 2.726562 10.875 3.40625 C 10.21875 4.09375 9.425781 4.554688 8.5 4.796875 C 7.582031 5.035156 6.691406 5.046875 5.828125 4.828125 C 4.972656 4.609375 4.265625 4.144531 3.703125 3.4375 C 3.148438 2.738281 2.914062 1.8125 3 0.65625 C 3.351562 -3.695312 3.628906 -8.128906 3.828125 -12.640625 C 4.035156 -17.160156 4.578125 -21.578125 5.453125 -25.890625 C 5.890625 -28.117188 6.707031 -30.269531 7.90625 -32.34375 C 9.101562 -34.425781 10.628906 -36.144531 12.484375 -37.5 C 14.347656 -38.863281 16.519531 -39.609375 19 -39.734375 C 20.71875 -39.804688 22.34375 -39.484375 23.875 -38.765625 C 25.414062 -38.046875 26.722656 -37.046875 27.796875 -35.765625 C 28.878906 -34.492188 29.609375 -33.054688 29.984375 -31.453125 C 30.367188 -29.859375 30.28125 -28.203125 29.71875 -26.484375 C 29.15625 -24.765625 28.242188 -23.144531 26.984375 -21.625 C 25.734375 -20.113281 24.289062 -18.796875 22.65625 -17.671875 C 26.925781 -14.203125 30.738281 -10.1875 34.09375 -5.625 Z M 18.03125 -25.59375 C 18.269531 -25.832031 18.671875 -26.195312 19.234375 -26.6875 C 19.796875 -27.1875 20.296875 -27.71875 20.734375 -28.28125 C 21.171875 -28.84375 21.347656 -29.28125 21.265625 -29.59375 C 21.109375 -30.4375 20.800781 -30.894531 20.34375 -30.96875 C 19.882812 -31.050781 19.363281 -30.921875 18.78125 -30.578125 C 18.207031 -30.242188 17.640625 -29.785156 17.078125 -29.203125 C 16.515625 -28.628906 16.035156 -28.082031 15.640625 -27.5625 C 15.242188 -27.039062 14.984375 -26.660156 14.859375 -26.421875 C 14.535156 -25.503906 14.253906 -24.503906 14.015625 -23.421875 C 14.816406 -23.546875 15.535156 -23.796875 16.171875 -24.171875 C 16.816406 -24.554688 17.4375 -25.03125 18.03125 -25.59375 Z M 18.03125 -25.59375 "/></g></g></g><g fill="#ef8535" fill-opacity="0.4"><g transform="translate(78.262218, 304.507026)"><g><path d="M 33.3125 -36.609375 C 34.269531 -35.054688 34.925781 -33.3125 35.28125 -31.375 C 35.644531 -29.4375 35.804688 -27.476562 35.765625 -25.5 C 35.734375 -23.519531 35.578125 -21.671875 35.296875 -19.953125 C 34.890625 -17.316406 34.066406 -14.816406 32.828125 -12.453125 C 31.597656 -10.097656 29.941406 -8.066406 27.859375 -6.359375 C 25.867188 -4.710938 23.550781 -3.507812 20.90625 -2.75 C 18.269531 -2 15.695312 -2.019531 13.1875 -2.8125 C 11.507812 -3.332031 10.050781 -4.191406 8.8125 -5.390625 C 7.570312 -6.585938 6.53125 -7.953125 5.6875 -9.484375 C 4.851562 -11.023438 4.234375 -12.597656 3.828125 -14.203125 C 3.347656 -15.960938 3.066406 -17.988281 2.984375 -20.28125 C 2.910156 -22.582031 3.070312 -24.929688 3.46875 -27.328125 C 3.875 -29.722656 4.535156 -31.957031 5.453125 -34.03125 C 6.367188 -36.113281 7.609375 -37.832031 9.171875 -39.1875 C 10.765625 -40.820312 12.679688 -41.976562 14.921875 -42.65625 C 17.160156 -43.34375 19.457031 -43.578125 21.8125 -43.359375 C 24.164062 -43.140625 26.359375 -42.457031 28.390625 -41.3125 C 30.429688 -40.175781 32.070312 -38.609375 33.3125 -36.609375 Z M 22.40625 -13.296875 C 23.769531 -14.578125 24.78125 -16.066406 25.4375 -17.765625 C 26.09375 -19.460938 26.5 -21.238281 26.65625 -23.09375 C 26.820312 -24.957031 26.785156 -26.765625 26.546875 -28.515625 C 26.304688 -30.273438 25.613281 -31.710938 24.46875 -32.828125 C 23.332031 -33.953125 21.828125 -34.492188 19.953125 -34.453125 C 18.910156 -34.453125 17.898438 -34.191406 16.921875 -33.671875 C 15.941406 -33.148438 15.132812 -32.472656 14.5 -31.640625 C 13.78125 -30.640625 13.257812 -29.441406 12.9375 -28.046875 C 12.625 -26.648438 12.382812 -25.351562 12.21875 -24.15625 C 11.863281 -21.476562 12.003906 -18.835938 12.640625 -16.234375 C 12.835938 -15.472656 13.109375 -14.710938 13.453125 -13.953125 C 13.796875 -13.203125 14.285156 -12.585938 14.921875 -12.109375 C 15.960938 -11.347656 17.148438 -11.078125 18.484375 -11.296875 C 19.828125 -11.515625 20.992188 -12.046875 21.984375 -12.890625 C 22.109375 -13.003906 22.25 -13.140625 22.40625 -13.296875 Z M 22.40625 -13.296875 "/></g></g></g><g fill="#ef8535" fill-opacity="0.4"><g transform="translate(117.025314, 304.507026)"><g><path d="M 44.28125 -32.84375 C 45 -26.769531 44.757812 -20.71875 43.5625 -14.6875 C 43.207031 -13.039062 42.785156 -11.359375 42.296875 -9.640625 C 41.816406 -7.929688 41.175781 -6.273438 40.375 -4.671875 C 39.582031 -3.078125 38.566406 -1.679688 37.328125 -0.484375 C 36.085938 0.710938 34.675781 1.59375 33.09375 2.15625 C 31.519531 2.71875 29.914062 2.90625 28.28125 2.71875 C 26.644531 2.539062 25.109375 1.953125 23.671875 0.953125 C 22.867188 0.398438 22.171875 -0.253906 21.578125 -1.015625 C 20.210938 0.0234375 18.722656 0.722656 17.109375 1.078125 C 15.492188 1.441406 13.875 1.34375 12.25 0.78125 C 10.632812 0.21875 9.128906 -0.898438 7.734375 -2.578125 C 6.609375 -3.972656 5.742188 -5.539062 5.140625 -7.28125 C 4.546875 -9.019531 4.117188 -10.804688 3.859375 -12.640625 C 3.597656 -14.484375 3.390625 -16.265625 3.234375 -17.984375 C 2.953125 -20.972656 2.910156 -23.960938 3.109375 -26.953125 C 3.316406 -29.953125 3.695312 -32.929688 4.25 -35.890625 C 4.445312 -37.046875 4.894531 -37.882812 5.59375 -38.40625 C 6.300781 -38.925781 7.113281 -39.175781 8.03125 -39.15625 C 8.945312 -39.132812 9.800781 -38.894531 10.59375 -38.4375 C 11.394531 -37.976562 12.023438 -37.328125 12.484375 -36.484375 C 12.953125 -35.648438 13.085938 -34.65625 12.890625 -33.5 C 12.328125 -30.457031 12.015625 -27.378906 11.953125 -24.265625 C 11.890625 -21.148438 12.117188 -18.054688 12.640625 -14.984375 C 12.722656 -14.460938 12.84375 -13.671875 13 -12.609375 C 13.164062 -11.554688 13.414062 -10.550781 13.75 -9.59375 C 14.09375 -8.632812 14.582031 -8.050781 15.21875 -7.84375 C 15.820312 -7.644531 16.3125 -7.710938 16.6875 -8.046875 C 17.0625 -8.390625 17.347656 -8.859375 17.546875 -9.453125 C 17.753906 -10.054688 17.894531 -10.664062 17.96875 -11.28125 C 18.050781 -11.90625 18.070312 -12.398438 18.03125 -12.765625 C 17.957031 -13.960938 18.207031 -14.898438 18.78125 -15.578125 C 19.363281 -16.253906 20.082031 -16.703125 20.9375 -16.921875 C 21.800781 -17.140625 22.679688 -17.140625 23.578125 -16.921875 C 24.472656 -16.703125 25.25 -16.242188 25.90625 -15.546875 C 26.570312 -14.847656 26.945312 -13.921875 27.03125 -12.765625 C 27.03125 -12.328125 27.054688 -11.71875 27.109375 -10.9375 C 27.171875 -10.15625 27.289062 -9.375 27.46875 -8.59375 C 27.65625 -7.820312 27.957031 -7.195312 28.375 -6.71875 C 28.789062 -6.238281 29.359375 -6.097656 30.078125 -6.296875 C 30.878906 -6.492188 31.53125 -7.019531 32.03125 -7.875 C 32.53125 -8.738281 32.914062 -9.671875 33.1875 -10.671875 C 33.46875 -11.671875 33.710938 -12.488281 33.921875 -13.125 C 34.835938 -16.363281 35.394531 -19.628906 35.59375 -22.921875 C 35.789062 -26.210938 35.691406 -29.519531 35.296875 -32.84375 C 35.171875 -34 35.367188 -34.914062 35.890625 -35.59375 C 36.410156 -36.269531 37.097656 -36.71875 37.953125 -36.9375 C 38.816406 -37.15625 39.707031 -37.144531 40.625 -36.90625 C 41.539062 -36.664062 42.347656 -36.207031 43.046875 -35.53125 C 43.753906 -34.851562 44.164062 -33.957031 44.28125 -32.84375 Z M 44.28125 -32.84375 "/></g></g></g><g fill="#ef8535" fill-opacity="0.4"><g transform="translate(164.715302, 304.507026)"><g><path d="M 25.953125 -37.09375 C 27.984375 -35.25 29.554688 -33.054688 30.671875 -30.515625 C 31.796875 -27.984375 32.195312 -25.320312 31.875 -22.53125 C 31.59375 -20.21875 30.84375 -18.050781 29.625 -16.03125 C 28.40625 -14.007812 26.921875 -12.257812 25.171875 -10.78125 C 23.210938 -9.101562 20.90625 -7.753906 18.25 -6.734375 C 15.59375 -5.722656 13.046875 -4.816406 10.609375 -4.015625 C 9.929688 -3.773438 9.238281 -3.582031 8.53125 -3.4375 C 7.832031 -3.300781 7.144531 -3.273438 6.46875 -3.359375 C 5.507812 -3.472656 4.679688 -3.921875 3.984375 -4.703125 C 3.285156 -5.484375 2.957031 -6.351562 3 -7.3125 C 3.28125 -18.175781 3.816406 -29.0625 4.609375 -39.96875 C 4.691406 -41.207031 5.101562 -42.078125 5.84375 -42.578125 C 6.582031 -43.078125 7.457031 -43.335938 8.46875 -43.359375 C 9.488281 -43.378906 10.476562 -43.304688 11.4375 -43.140625 C 12 -43.066406 12.519531 -42.988281 13 -42.90625 C 15.351562 -42.425781 17.628906 -41.753906 19.828125 -40.890625 C 22.023438 -40.035156 24.066406 -38.769531 25.953125 -37.09375 Z M 22.59375 -22.046875 C 23.144531 -23.648438 23.234375 -25.109375 22.859375 -26.421875 C 22.484375 -27.742188 21.796875 -28.882812 20.796875 -29.84375 C 19.796875 -30.800781 18.613281 -31.597656 17.25 -32.234375 C 15.894531 -32.878906 14.519531 -33.359375 13.125 -33.671875 C 12.726562 -27.117188 12.410156 -20.609375 12.171875 -14.140625 C 13.640625 -14.617188 15.0625 -15.164062 16.4375 -15.78125 C 17.820312 -16.40625 19.050781 -17.207031 20.125 -18.1875 C 21.207031 -19.164062 22.03125 -20.453125 22.59375 -22.046875 Z M 22.59375 -22.046875 "/></g></g></g><g fill="#ef8535" fill-opacity="0.4"><g transform="translate(199.703937, 304.507026)"><g><path d="M 22.34375 -25.890625 C 24.582031 -24.367188 26.347656 -22.390625 27.640625 -19.953125 C 28.941406 -17.515625 29.457031 -14.921875 29.1875 -12.171875 C 28.90625 -9.765625 28.082031 -7.703125 26.71875 -5.984375 C 25.363281 -4.273438 23.695312 -2.941406 21.71875 -1.984375 C 19.738281 -1.023438 17.640625 -0.492188 15.421875 -0.390625 C 13.210938 -0.285156 11.085938 -0.648438 9.046875 -1.484375 C 7.015625 -2.328125 5.296875 -3.691406 3.890625 -5.578125 C 3.171875 -6.492188 2.867188 -7.378906 2.984375 -8.234375 C 3.109375 -9.097656 3.476562 -9.847656 4.09375 -10.484375 C 4.71875 -11.117188 5.488281 -11.566406 6.40625 -11.828125 C 7.332031 -12.085938 8.265625 -12.097656 9.203125 -11.859375 C 10.140625 -11.617188 10.945312 -11.039062 11.625 -10.125 C 11.945312 -9.6875 12.546875 -9.4375 13.421875 -9.375 C 14.296875 -9.3125 15.171875 -9.347656 16.046875 -9.484375 C 16.929688 -9.628906 17.554688 -9.785156 17.921875 -9.953125 C 18.753906 -10.347656 19.378906 -10.9375 19.796875 -11.71875 C 20.222656 -12.5 20.375 -13.347656 20.25 -14.265625 C 20.132812 -15.378906 19.734375 -16.296875 19.046875 -17.015625 C 18.367188 -17.734375 17.5625 -18.363281 16.625 -18.90625 C 15.6875 -19.445312 14.738281 -19.96875 13.78125 -20.46875 C 12.820312 -20.96875 11.984375 -21.515625 11.265625 -22.109375 C 9.265625 -23.867188 8.046875 -25.773438 7.609375 -27.828125 C 7.171875 -29.890625 7.320312 -31.945312 8.0625 -34 C 8.800781 -36.0625 9.945312 -37.929688 11.5 -39.609375 C 13.0625 -41.285156 14.84375 -42.582031 16.84375 -43.5 C 17.914062 -44.019531 18.910156 -44.160156 19.828125 -43.921875 C 20.753906 -43.679688 21.546875 -43.226562 22.203125 -42.5625 C 22.859375 -41.90625 23.304688 -41.140625 23.546875 -40.265625 C 23.785156 -39.390625 23.742188 -38.539062 23.421875 -37.71875 C 23.109375 -36.90625 22.429688 -36.253906 21.390625 -35.765625 C 20.710938 -35.453125 19.921875 -35.015625 19.015625 -34.453125 C 18.117188 -33.890625 17.378906 -33.21875 16.796875 -32.4375 C 16.222656 -31.664062 16.117188 -30.800781 16.484375 -29.84375 C 16.679688 -29.195312 17.148438 -28.644531 17.890625 -28.1875 C 18.628906 -27.726562 19.414062 -27.316406 20.25 -26.953125 C 21.09375 -26.597656 21.789062 -26.242188 22.34375 -25.890625 Z M 22.34375 -25.890625 "/></g></g></g><g fill="#ef8535" fill-opacity="0.4"><g transform="translate(231.936621, 304.507026)"><g><path d="M 33.3125 -36.609375 C 34.269531 -35.054688 34.925781 -33.3125 35.28125 -31.375 C 35.644531 -29.4375 35.804688 -27.476562 35.765625 -25.5 C 35.734375 -23.519531 35.578125 -21.671875 35.296875 -19.953125 C 34.890625 -17.316406 34.066406 -14.816406 32.828125 -12.453125 C 31.597656 -10.097656 29.941406 -8.066406 27.859375 -6.359375 C 25.867188 -4.710938 23.550781 -3.507812 20.90625 -2.75 C 18.269531 -2 15.695312 -2.019531 13.1875 -2.8125 C 11.507812 -3.332031 10.050781 -4.191406 8.8125 -5.390625 C 7.570312 -6.585938 6.53125 -7.953125 5.6875 -9.484375 C 4.851562 -11.023438 4.234375 -12.597656 3.828125 -14.203125 C 3.347656 -15.960938 3.066406 -17.988281 2.984375 -20.28125 C 2.910156 -22.582031 3.070312 -24.929688 3.46875 -27.328125 C 3.875 -29.722656 4.535156 -31.957031 5.453125 -34.03125 C 6.367188 -36.113281 7.609375 -37.832031 9.171875 -39.1875 C 10.765625 -40.820312 12.679688 -41.976562 14.921875 -42.65625 C 17.160156 -43.34375 19.457031 -43.578125 21.8125 -43.359375 C 24.164062 -43.140625 26.359375 -42.457031 28.390625 -41.3125 C 30.429688 -40.175781 32.070312 -38.609375 33.3125 -36.609375 Z M 22.40625 -13.296875 C 23.769531 -14.578125 24.78125 -16.066406 25.4375 -17.765625 C 26.09375 -19.460938 26.5 -21.238281 26.65625 -23.09375 C 26.820312 -24.957031 26.785156 -26.765625 26.546875 -28.515625 C 26.304688 -30.273438 25.613281 -31.710938 24.46875 -32.828125 C 23.332031 -33.953125 21.828125 -34.492188 19.953125 -34.453125 C 18.910156 -34.453125 17.898438 -34.191406 16.921875 -33.671875 C 15.941406 -33.148438 15.132812 -32.472656 14.5 -31.640625 C 13.78125 -30.640625 13.257812 -29.441406 12.9375 -28.046875 C 12.625 -26.648438 12.382812 -25.351562 12.21875 -24.15625 C 11.863281 -21.476562 12.003906 -18.835938 12.640625 -16.234375 C 12.835938 -15.472656 13.109375 -14.710938 13.453125 -13.953125 C 13.796875 -13.203125 14.285156 -12.585938 14.921875 -12.109375 C 15.960938 -11.347656 17.148438 -11.078125 18.484375 -11.296875 C 19.828125 -11.515625 20.992188 -12.046875 21.984375 -12.890625 C 22.109375 -13.003906 22.25 -13.140625 22.40625 -13.296875 Z M 22.40625 -13.296875 "/></g></g></g><g fill="#ef8535" fill-opacity="0.4"><g transform="translate(270.699716, 304.507026)"><g><path d="M 26.421875 -19.359375 C 27.578125 -19.429688 28.492188 -19.195312 29.171875 -18.65625 C 29.859375 -18.125 30.320312 -17.414062 30.5625 -16.53125 C 30.800781 -15.65625 30.800781 -14.757812 30.5625 -13.84375 C 30.320312 -12.925781 29.851562 -12.132812 29.15625 -11.46875 C 28.457031 -10.8125 27.546875 -10.441406 26.421875 -10.359375 C 23.390625 -10.117188 20.40625 -9.726562 17.46875 -9.1875 C 14.53125 -8.65625 11.601562 -7.96875 8.6875 -7.125 C 7.851562 -6.882812 6.972656 -6.9375 6.046875 -7.28125 C 5.128906 -7.625 4.367188 -8.160156 3.765625 -8.890625 C 3.171875 -9.628906 2.914062 -10.5 3 -11.5 C 3.476562 -16.175781 3.945312 -20.847656 4.40625 -25.515625 C 4.863281 -30.191406 5.3125 -34.867188 5.75 -39.546875 C 5.875 -40.660156 6.273438 -41.566406 6.953125 -42.265625 C 7.628906 -42.972656 8.425781 -43.4375 9.34375 -43.65625 C 10.257812 -43.875 11.144531 -43.875 12 -43.65625 C 12.863281 -43.4375 13.566406 -42.972656 14.109375 -42.265625 C 14.648438 -41.566406 14.859375 -40.660156 14.734375 -39.546875 C 14.378906 -35.828125 14.019531 -32.117188 13.65625 -28.421875 C 13.300781 -24.734375 12.941406 -21.050781 12.578125 -17.375 C 17.097656 -18.332031 21.710938 -18.992188 26.421875 -19.359375 Z M 26.421875 -19.359375 "/></g></g></g><g fill="#ef8535" fill-opacity="0.4"><g transform="translate(304.430202, 304.507026)"><g><path d="M 26.25 -31.765625 C 26.644531 -32.835938 27.257812 -33.613281 28.09375 -34.09375 C 28.9375 -34.570312 29.828125 -34.800781 30.765625 -34.78125 C 31.703125 -34.757812 32.5625 -34.519531 33.34375 -34.0625 C 34.125 -33.601562 34.679688 -32.972656 35.015625 -32.171875 C 35.359375 -31.378906 35.332031 -30.441406 34.9375 -29.359375 C 31.21875 -19.492188 27.0625 -9.90625 22.46875 -0.59375 C 21.945312 0.476562 21.175781 1.15625 20.15625 1.4375 C 19.144531 1.71875 18.128906 1.664062 17.109375 1.28125 C 16.085938 0.90625 15.296875 0.28125 14.734375 -0.59375 C 12.742188 -3.675781 11.097656 -6.972656 9.796875 -10.484375 C 8.492188 -14.003906 7.34375 -17.582031 6.34375 -21.21875 C 5.351562 -24.851562 4.316406 -28.382812 3.234375 -31.8125 C 2.878906 -32.9375 2.890625 -33.90625 3.265625 -34.71875 C 3.640625 -35.539062 4.226562 -36.179688 5.03125 -36.640625 C 5.832031 -37.097656 6.691406 -37.328125 7.609375 -37.328125 C 8.523438 -37.328125 9.382812 -37.078125 10.1875 -36.578125 C 10.988281 -36.078125 11.546875 -35.289062 11.859375 -34.21875 C 12.941406 -30.820312 13.972656 -27.304688 14.953125 -23.671875 C 15.929688 -20.035156 17.097656 -16.5 18.453125 -13.0625 C 19.847656 -16.132812 21.195312 -19.226562 22.5 -22.34375 C 23.800781 -25.46875 25.050781 -28.609375 26.25 -31.765625 Z M 26.25 -31.765625 "/></g></g></g><g fill="#ef8535" fill-opacity="0.4"><g transform="translate(342.654096, 304.507026)"><g><path d="M 24.984375 -12.640625 C 26.140625 -12.597656 27.066406 -12.257812 27.765625 -11.625 C 28.472656 -10.988281 28.9375 -10.21875 29.15625 -9.3125 C 29.375 -8.414062 29.375 -7.523438 29.15625 -6.640625 C 28.9375 -5.765625 28.472656 -5.035156 27.765625 -4.453125 C 27.066406 -3.878906 26.140625 -3.613281 24.984375 -3.65625 C 22.265625 -3.769531 19.546875 -3.757812 16.828125 -3.625 C 14.117188 -3.488281 11.40625 -3.195312 8.6875 -2.75 C 7.851562 -2.632812 6.972656 -2.722656 6.046875 -3.015625 C 5.128906 -3.316406 4.359375 -3.804688 3.734375 -4.484375 C 3.117188 -5.171875 2.894531 -6.050781 3.0625 -7.125 C 3.738281 -12.644531 4.484375 -18.160156 5.296875 -23.671875 C 6.117188 -29.179688 7.007812 -34.691406 7.96875 -40.203125 C 8.09375 -40.878906 8.332031 -41.460938 8.6875 -41.953125 C 9.007812 -42.503906 9.46875 -42.96875 10.0625 -43.34375 C 10.664062 -43.726562 11.40625 -43.941406 12.28125 -43.984375 C 16.59375 -44.097656 20.910156 -44.019531 25.234375 -43.75 C 26.390625 -43.664062 27.316406 -43.289062 28.015625 -42.625 C 28.710938 -41.96875 29.171875 -41.191406 29.390625 -40.296875 C 29.609375 -39.398438 29.609375 -38.507812 29.390625 -37.625 C 29.171875 -36.75 28.710938 -36.03125 28.015625 -35.46875 C 27.316406 -34.914062 26.390625 -34.675781 25.234375 -34.75 C 22.273438 -34.945312 19.253906 -35.046875 16.171875 -35.046875 C 15.972656 -33.890625 15.773438 -32.734375 15.578125 -31.578125 C 15.378906 -30.421875 15.203125 -29.265625 15.046875 -28.109375 C 16.679688 -28.066406 18.257812 -27.960938 19.78125 -27.796875 C 20.976562 -27.679688 22.023438 -27.234375 22.921875 -26.453125 C 23.816406 -25.671875 24.265625 -24.625 24.265625 -23.3125 C 24.265625 -22.550781 24.054688 -21.8125 23.640625 -21.09375 C 23.222656 -20.375 22.671875 -19.796875 21.984375 -19.359375 C 21.304688 -18.921875 20.570312 -18.738281 19.78125 -18.8125 C 17.738281 -19.007812 15.695312 -19.109375 13.65625 -19.109375 C 13.5 -17.992188 13.335938 -16.859375 13.171875 -15.703125 C 13.015625 -14.546875 12.859375 -13.40625 12.703125 -12.28125 C 14.742188 -12.476562 16.78125 -12.609375 18.8125 -12.671875 C 20.851562 -12.734375 22.910156 -12.722656 24.984375 -12.640625 Z M 24.984375 -12.640625 "/></g></g></g><g fill="#ae5630" fill-opacity="1"><g transform="translate(2.460942, 301.85837)"><g><path d="M 26.671875 -14.375 C 27.785156 -14.695312 28.75 -14.65625 29.5625 -14.25 C 30.382812 -13.851562 31.023438 -13.253906 31.484375 -12.453125 C 31.941406 -11.660156 32.179688 -10.804688 32.203125 -9.890625 C 32.222656 -8.972656 31.984375 -8.125 31.484375 -7.34375 C 30.984375 -6.5625 30.175781 -6.03125 29.0625 -5.75 C 27.019531 -5.15625 24.929688 -4.71875 22.796875 -4.4375 C 20.660156 -4.15625 18.539062 -4.144531 16.4375 -4.40625 C 14.34375 -4.664062 12.335938 -5.332031 10.421875 -6.40625 C 7.953125 -7.84375 6.066406 -9.800781 4.765625 -12.28125 C 3.460938 -14.757812 2.875 -17.414062 3 -20.25 C 3.15625 -23.050781 3.851562 -25.738281 5.09375 -28.3125 C 6.332031 -30.882812 7.976562 -33.148438 10.03125 -35.109375 C 12.09375 -37.066406 14.429688 -38.570312 17.046875 -39.625 C 19.660156 -40.6875 22.390625 -41.117188 25.234375 -40.921875 C 26.390625 -40.804688 27.316406 -40.414062 28.015625 -39.75 C 28.710938 -39.09375 29.171875 -38.316406 29.390625 -37.421875 C 29.609375 -36.523438 29.609375 -35.632812 29.390625 -34.75 C 29.171875 -33.875 28.710938 -33.15625 28.015625 -32.59375 C 27.316406 -32.039062 26.390625 -31.820312 25.234375 -31.9375 C 23.148438 -32.09375 21.175781 -31.703125 19.3125 -30.765625 C 17.457031 -29.828125 15.890625 -28.519531 14.609375 -26.84375 C 13.335938 -25.164062 12.523438 -23.304688 12.171875 -21.265625 C 11.804688 -19.429688 11.894531 -17.960938 12.4375 -16.859375 C 12.976562 -15.765625 13.785156 -14.957031 14.859375 -14.4375 C 15.941406 -13.914062 17.171875 -13.59375 18.546875 -13.46875 C 19.921875 -13.351562 21.316406 -13.394531 22.734375 -13.59375 C 24.160156 -13.800781 25.472656 -14.0625 26.671875 -14.375 Z M 26.671875 -14.375 "/></g></g></g><g fill="#ae5630" fill-opacity="1"><g transform="translate(37.68923, 301.85837)"><g><path d="M 34.09375 -5.625 C 34.769531 -4.664062 35.046875 -3.757812 34.921875 -2.90625 C 34.804688 -2.050781 34.429688 -1.300781 33.796875 -0.65625 C 33.160156 -0.0195312 32.390625 0.425781 31.484375 0.6875 C 30.585938 0.945312 29.671875 0.945312 28.734375 0.6875 C 27.796875 0.425781 26.988281 -0.160156 26.3125 -1.078125 C 24.507812 -3.554688 22.5 -5.832031 20.28125 -7.90625 C 18.0625 -9.988281 15.675781 -11.867188 13.125 -13.546875 C 12.925781 -11.179688 12.734375 -8.8125 12.546875 -6.4375 C 12.367188 -4.0625 12.179688 -1.695312 11.984375 0.65625 C 11.898438 1.8125 11.53125 2.726562 10.875 3.40625 C 10.21875 4.09375 9.425781 4.554688 8.5 4.796875 C 7.582031 5.035156 6.691406 5.046875 5.828125 4.828125 C 4.972656 4.609375 4.265625 4.144531 3.703125 3.4375 C 3.148438 2.738281 2.914062 1.8125 3 0.65625 C 3.351562 -3.695312 3.628906 -8.128906 3.828125 -12.640625 C 4.035156 -17.160156 4.578125 -21.578125 5.453125 -25.890625 C 5.890625 -28.117188 6.707031 -30.269531 7.90625 -32.34375 C 9.101562 -34.425781 10.628906 -36.144531 12.484375 -37.5 C 14.347656 -38.863281 16.519531 -39.609375 19 -39.734375 C 20.71875 -39.804688 22.34375 -39.484375 23.875 -38.765625 C 25.414062 -38.046875 26.722656 -37.046875 27.796875 -35.765625 C 28.878906 -34.492188 29.609375 -33.054688 29.984375 -31.453125 C 30.367188 -29.859375 30.28125 -28.203125 29.71875 -26.484375 C 29.15625 -24.765625 28.242188 -23.144531 26.984375 -21.625 C 25.734375 -20.113281 24.289062 -18.796875 22.65625 -17.671875 C 26.925781 -14.203125 30.738281 -10.1875 34.09375 -5.625 Z M 18.03125 -25.59375 C 18.269531 -25.832031 18.671875 -26.195312 19.234375 -26.6875 C 19.796875 -27.1875 20.296875 -27.71875 20.734375 -28.28125 C 21.171875 -28.84375 21.347656 -29.28125 21.265625 -29.59375 C 21.109375 -30.4375 20.800781 -30.894531 20.34375 -30.96875 C 19.882812 -31.050781 19.363281 -30.921875 18.78125 -30.578125 C 18.207031 -30.242188 17.640625 -29.785156 17.078125 -29.203125 C 16.515625 -28.628906 16.035156 -28.082031 15.640625 -27.5625 C 15.242188 -27.039062 14.984375 -26.660156 14.859375 -26.421875 C 14.535156 -25.503906 14.253906 -24.503906 14.015625 -23.421875 C 14.816406 -23.546875 15.535156 -23.796875 16.171875 -24.171875 C 16.816406 -24.554688 17.4375 -25.03125 18.03125 -25.59375 Z M 18.03125 -25.59375 "/></g></g></g><g fill="#ae5630" fill-opacity="1"><g transform="translate(75.61356, 301.85837)"><g><path d="M 33.3125 -36.609375 C 34.269531 -35.054688 34.925781 -33.3125 35.28125 -31.375 C 35.644531 -29.4375 35.804688 -27.476562 35.765625 -25.5 C 35.734375 -23.519531 35.578125 -21.671875 35.296875 -19.953125 C 34.890625 -17.316406 34.066406 -14.816406 32.828125 -12.453125 C 31.597656 -10.097656 29.941406 -8.066406 27.859375 -6.359375 C 25.867188 -4.710938 23.550781 -3.507812 20.90625 -2.75 C 18.269531 -2 15.695312 -2.019531 13.1875 -2.8125 C 11.507812 -3.332031 10.050781 -4.191406 8.8125 -5.390625 C 7.570312 -6.585938 6.53125 -7.953125 5.6875 -9.484375 C 4.851562 -11.023438 4.234375 -12.597656 3.828125 -14.203125 C 3.347656 -15.960938 3.066406 -17.988281 2.984375 -20.28125 C 2.910156 -22.582031 3.070312 -24.929688 3.46875 -27.328125 C 3.875 -29.722656 4.535156 -31.957031 5.453125 -34.03125 C 6.367188 -36.113281 7.609375 -37.832031 9.171875 -39.1875 C 10.765625 -40.820312 12.679688 -41.976562 14.921875 -42.65625 C 17.160156 -43.34375 19.457031 -43.578125 21.8125 -43.359375 C 24.164062 -43.140625 26.359375 -42.457031 28.390625 -41.3125 C 30.429688 -40.175781 32.070312 -38.609375 33.3125 -36.609375 Z M 22.40625 -13.296875 C 23.769531 -14.578125 24.78125 -16.066406 25.4375 -17.765625 C 26.09375 -19.460938 26.5 -21.238281 26.65625 -23.09375 C 26.820312 -24.957031 26.785156 -26.765625 26.546875 -28.515625 C 26.304688 -30.273438 25.613281 -31.710938 24.46875 -32.828125 C 23.332031 -33.953125 21.828125 -34.492188 19.953125 -34.453125 C 18.910156 -34.453125 17.898438 -34.191406 16.921875 -33.671875 C 15.941406 -33.148438 15.132812 -32.472656 14.5 -31.640625 C 13.78125 -30.640625 13.257812 -29.441406 12.9375 -28.046875 C 12.625 -26.648438 12.382812 -25.351562 12.21875 -24.15625 C 11.863281 -21.476562 12.003906 -18.835938 12.640625 -16.234375 C 12.835938 -15.472656 13.109375 -14.710938 13.453125 -13.953125 C 13.796875 -13.203125 14.285156 -12.585938 14.921875 -12.109375 C 15.960938 -11.347656 17.148438 -11.078125 18.484375 -11.296875 C 19.828125 -11.515625 20.992188 -12.046875 21.984375 -12.890625 C 22.109375 -13.003906 22.25 -13.140625 22.40625 -13.296875 Z M 22.40625 -13.296875 "/></g></g></g><g fill="#ae5630" fill-opacity="1"><g transform="translate(114.376655, 301.85837)"><g><path d="M 44.28125 -32.84375 C 45 -26.769531 44.757812 -20.71875 43.5625 -14.6875 C 43.207031 -13.039062 42.785156 -11.359375 42.296875 -9.640625 C 41.816406 -7.929688 41.175781 -6.273438 40.375 -4.671875 C 39.582031 -3.078125 38.566406 -1.679688 37.328125 -0.484375 C 36.085938 0.710938 34.675781 1.59375 33.09375 2.15625 C 31.519531 2.71875 29.914062 2.90625 28.28125 2.71875 C 26.644531 2.539062 25.109375 1.953125 23.671875 0.953125 C 22.867188 0.398438 22.171875 -0.253906 21.578125 -1.015625 C 20.210938 0.0234375 18.722656 0.722656 17.109375 1.078125 C 15.492188 1.441406 13.875 1.34375 12.25 0.78125 C 10.632812 0.21875 9.128906 -0.898438 7.734375 -2.578125 C 6.609375 -3.972656 5.742188 -5.539062 5.140625 -7.28125 C 4.546875 -9.019531 4.117188 -10.804688 3.859375 -12.640625 C 3.597656 -14.484375 3.390625 -16.265625 3.234375 -17.984375 C 2.953125 -20.972656 2.910156 -23.960938 3.109375 -26.953125 C 3.316406 -29.953125 3.695312 -32.929688 4.25 -35.890625 C 4.445312 -37.046875 4.894531 -37.882812 5.59375 -38.40625 C 6.300781 -38.925781 7.113281 -39.175781 8.03125 -39.15625 C 8.945312 -39.132812 9.800781 -38.894531 10.59375 -38.4375 C 11.394531 -37.976562 12.023438 -37.328125 12.484375 -36.484375 C 12.953125 -35.648438 13.085938 -34.65625 12.890625 -33.5 C 12.328125 -30.457031 12.015625 -27.378906 11.953125 -24.265625 C 11.890625 -21.148438 12.117188 -18.054688 12.640625 -14.984375 C 12.722656 -14.460938 12.84375 -13.671875 13 -12.609375 C 13.164062 -11.554688 13.414062 -10.550781 13.75 -9.59375 C 14.09375 -8.632812 14.582031 -8.050781 15.21875 -7.84375 C 15.820312 -7.644531 16.3125 -7.710938 16.6875 -8.046875 C 17.0625 -8.390625 17.347656 -8.859375 17.546875 -9.453125 C 17.753906 -10.054688 17.894531 -10.664062 17.96875 -11.28125 C 18.050781 -11.90625 18.070312 -12.398438 18.03125 -12.765625 C 17.957031 -13.960938 18.207031 -14.898438 18.78125 -15.578125 C 19.363281 -16.253906 20.082031 -16.703125 20.9375 -16.921875 C 21.800781 -17.140625 22.679688 -17.140625 23.578125 -16.921875 C 24.472656 -16.703125 25.25 -16.242188 25.90625 -15.546875 C 26.570312 -14.847656 26.945312 -13.921875 27.03125 -12.765625 C 27.03125 -12.328125 27.054688 -11.71875 27.109375 -10.9375 C 27.171875 -10.15625 27.289062 -9.375 27.46875 -8.59375 C 27.65625 -7.820312 27.957031 -7.195312 28.375 -6.71875 C 28.789062 -6.238281 29.359375 -6.097656 30.078125 -6.296875 C 30.878906 -6.492188 31.53125 -7.019531 32.03125 -7.875 C 32.53125 -8.738281 32.914062 -9.671875 33.1875 -10.671875 C 33.46875 -11.671875 33.710938 -12.488281 33.921875 -13.125 C 34.835938 -16.363281 35.394531 -19.628906 35.59375 -22.921875 C 35.789062 -26.210938 35.691406 -29.519531 35.296875 -32.84375 C 35.171875 -34 35.367188 -34.914062 35.890625 -35.59375 C 36.410156 -36.269531 37.097656 -36.71875 37.953125 -36.9375 C 38.816406 -37.15625 39.707031 -37.144531 40.625 -36.90625 C 41.539062 -36.664062 42.347656 -36.207031 43.046875 -35.53125 C 43.753906 -34.851562 44.164062 -33.957031 44.28125 -32.84375 Z M 44.28125 -32.84375 "/></g></g></g><g fill="#ae5630" fill-opacity="1"><g transform="translate(162.066644, 301.85837)"><g><path d="M 25.953125 -37.09375 C 27.984375 -35.25 29.554688 -33.054688 30.671875 -30.515625 C 31.796875 -27.984375 32.195312 -25.320312 31.875 -22.53125 C 31.59375 -20.21875 30.84375 -18.050781 29.625 -16.03125 C 28.40625 -14.007812 26.921875 -12.257812 25.171875 -10.78125 C 23.210938 -9.101562 20.90625 -7.753906 18.25 -6.734375 C 15.59375 -5.722656 13.046875 -4.816406 10.609375 -4.015625 C 9.929688 -3.773438 9.238281 -3.582031 8.53125 -3.4375 C 7.832031 -3.300781 7.144531 -3.273438 6.46875 -3.359375 C 5.507812 -3.472656 4.679688 -3.921875 3.984375 -4.703125 C 3.285156 -5.484375 2.957031 -6.351562 3 -7.3125 C 3.28125 -18.175781 3.816406 -29.0625 4.609375 -39.96875 C 4.691406 -41.207031 5.101562 -42.078125 5.84375 -42.578125 C 6.582031 -43.078125 7.457031 -43.335938 8.46875 -43.359375 C 9.488281 -43.378906 10.476562 -43.304688 11.4375 -43.140625 C 12 -43.066406 12.519531 -42.988281 13 -42.90625 C 15.351562 -42.425781 17.628906 -41.753906 19.828125 -40.890625 C 22.023438 -40.035156 24.066406 -38.769531 25.953125 -37.09375 Z M 22.59375 -22.046875 C 23.144531 -23.648438 23.234375 -25.109375 22.859375 -26.421875 C 22.484375 -27.742188 21.796875 -28.882812 20.796875 -29.84375 C 19.796875 -30.800781 18.613281 -31.597656 17.25 -32.234375 C 15.894531 -32.878906 14.519531 -33.359375 13.125 -33.671875 C 12.726562 -27.117188 12.410156 -20.609375 12.171875 -14.140625 C 13.640625 -14.617188 15.0625 -15.164062 16.4375 -15.78125 C 17.820312 -16.40625 19.050781 -17.207031 20.125 -18.1875 C 21.207031 -19.164062 22.03125 -20.453125 22.59375 -22.046875 Z M 22.59375 -22.046875 "/></g></g></g><g fill="#ae5630" fill-opacity="1"><g transform="translate(197.055278, 301.85837)"><g><path d="M 22.34375 -25.890625 C 24.582031 -24.367188 26.347656 -22.390625 27.640625 -19.953125 C 28.941406 -17.515625 29.457031 -14.921875 29.1875 -12.171875 C 28.90625 -9.765625 28.082031 -7.703125 26.71875 -5.984375 C 25.363281 -4.273438 23.695312 -2.941406 21.71875 -1.984375 C 19.738281 -1.023438 17.640625 -0.492188 15.421875 -0.390625 C 13.210938 -0.285156 11.085938 -0.648438 9.046875 -1.484375 C 7.015625 -2.328125 5.296875 -3.691406 3.890625 -5.578125 C 3.171875 -6.492188 2.867188 -7.378906 2.984375 -8.234375 C 3.109375 -9.097656 3.476562 -9.847656 4.09375 -10.484375 C 4.71875 -11.117188 5.488281 -11.566406 6.40625 -11.828125 C 7.332031 -12.085938 8.265625 -12.097656 9.203125 -11.859375 C 10.140625 -11.617188 10.945312 -11.039062 11.625 -10.125 C 11.945312 -9.6875 12.546875 -9.4375 13.421875 -9.375 C 14.296875 -9.3125 15.171875 -9.347656 16.046875 -9.484375 C 16.929688 -9.628906 17.554688 -9.785156 17.921875 -9.953125 C 18.753906 -10.347656 19.378906 -10.9375 19.796875 -11.71875 C 20.222656 -12.5 20.375 -13.347656 20.25 -14.265625 C 20.132812 -15.378906 19.734375 -16.296875 19.046875 -17.015625 C 18.367188 -17.734375 17.5625 -18.363281 16.625 -18.90625 C 15.6875 -19.445312 14.738281 -19.96875 13.78125 -20.46875 C 12.820312 -20.96875 11.984375 -21.515625 11.265625 -22.109375 C 9.265625 -23.867188 8.046875 -25.773438 7.609375 -27.828125 C 7.171875 -29.890625 7.320312 -31.945312 8.0625 -34 C 8.800781 -36.0625 9.945312 -37.929688 11.5 -39.609375 C 13.0625 -41.285156 14.84375 -42.582031 16.84375 -43.5 C 17.914062 -44.019531 18.910156 -44.160156 19.828125 -43.921875 C 20.753906 -43.679688 21.546875 -43.226562 22.203125 -42.5625 C 22.859375 -41.90625 23.304688 -41.140625 23.546875 -40.265625 C 23.785156 -39.390625 23.742188 -38.539062 23.421875 -37.71875 C 23.109375 -36.90625 22.429688 -36.253906 21.390625 -35.765625 C 20.710938 -35.453125 19.921875 -35.015625 19.015625 -34.453125 C 18.117188 -33.890625 17.378906 -33.21875 16.796875 -32.4375 C 16.222656 -31.664062 16.117188 -30.800781 16.484375 -29.84375 C 16.679688 -29.195312 17.148438 -28.644531 17.890625 -28.1875 C 18.628906 -27.726562 19.414062 -27.316406 20.25 -26.953125 C 21.09375 -26.597656 21.789062 -26.242188 22.34375 -25.890625 Z M 22.34375 -25.890625 "/></g></g></g><g fill="#ae5630" fill-opacity="1"><g transform="translate(229.287962, 301.85837)"><g><path d="M 33.3125 -36.609375 C 34.269531 -35.054688 34.925781 -33.3125 35.28125 -31.375 C 35.644531 -29.4375 35.804688 -27.476562 35.765625 -25.5 C 35.734375 -23.519531 35.578125 -21.671875 35.296875 -19.953125 C 34.890625 -17.316406 34.066406 -14.816406 32.828125 -12.453125 C 31.597656 -10.097656 29.941406 -8.066406 27.859375 -6.359375 C 25.867188 -4.710938 23.550781 -3.507812 20.90625 -2.75 C 18.269531 -2 15.695312 -2.019531 13.1875 -2.8125 C 11.507812 -3.332031 10.050781 -4.191406 8.8125 -5.390625 C 7.570312 -6.585938 6.53125 -7.953125 5.6875 -9.484375 C 4.851562 -11.023438 4.234375 -12.597656 3.828125 -14.203125 C 3.347656 -15.960938 3.066406 -17.988281 2.984375 -20.28125 C 2.910156 -22.582031 3.070312 -24.929688 3.46875 -27.328125 C 3.875 -29.722656 4.535156 -31.957031 5.453125 -34.03125 C 6.367188 -36.113281 7.609375 -37.832031 9.171875 -39.1875 C 10.765625 -40.820312 12.679688 -41.976562 14.921875 -42.65625 C 17.160156 -43.34375 19.457031 -43.578125 21.8125 -43.359375 C 24.164062 -43.140625 26.359375 -42.457031 28.390625 -41.3125 C 30.429688 -40.175781 32.070312 -38.609375 33.3125 -36.609375 Z M 22.40625 -13.296875 C 23.769531 -14.578125 24.78125 -16.066406 25.4375 -17.765625 C 26.09375 -19.460938 26.5 -21.238281 26.65625 -23.09375 C 26.820312 -24.957031 26.785156 -26.765625 26.546875 -28.515625 C 26.304688 -30.273438 25.613281 -31.710938 24.46875 -32.828125 C 23.332031 -33.953125 21.828125 -34.492188 19.953125 -34.453125 C 18.910156 -34.453125 17.898438 -34.191406 16.921875 -33.671875 C 15.941406 -33.148438 15.132812 -32.472656 14.5 -31.640625 C 13.78125 -30.640625 13.257812 -29.441406 12.9375 -28.046875 C 12.625 -26.648438 12.382812 -25.351562 12.21875 -24.15625 C 11.863281 -21.476562 12.003906 -18.835938 12.640625 -16.234375 C 12.835938 -15.472656 13.109375 -14.710938 13.453125 -13.953125 C 13.796875 -13.203125 14.285156 -12.585938 14.921875 -12.109375 C 15.960938 -11.347656 17.148438 -11.078125 18.484375 -11.296875 C 19.828125 -11.515625 20.992188 -12.046875 21.984375 -12.890625 C 22.109375 -13.003906 22.25 -13.140625 22.40625 -13.296875 Z M 22.40625 -13.296875 "/></g></g></g><g fill="#ae5630" fill-opacity="1"><g transform="translate(268.051058, 301.85837)"><g><path d="M 26.421875 -19.359375 C 27.578125 -19.429688 28.492188 -19.195312 29.171875 -18.65625 C 29.859375 -18.125 30.320312 -17.414062 30.5625 -16.53125 C 30.800781 -15.65625 30.800781 -14.757812 30.5625 -13.84375 C 30.320312 -12.925781 29.851562 -12.132812 29.15625 -11.46875 C 28.457031 -10.8125 27.546875 -10.441406 26.421875 -10.359375 C 23.390625 -10.117188 20.40625 -9.726562 17.46875 -9.1875 C 14.53125 -8.65625 11.601562 -7.96875 8.6875 -7.125 C 7.851562 -6.882812 6.972656 -6.9375 6.046875 -7.28125 C 5.128906 -7.625 4.367188 -8.160156 3.765625 -8.890625 C 3.171875 -9.628906 2.914062 -10.5 3 -11.5 C 3.476562 -16.175781 3.945312 -20.847656 4.40625 -25.515625 C 4.863281 -30.191406 5.3125 -34.867188 5.75 -39.546875 C 5.875 -40.660156 6.273438 -41.566406 6.953125 -42.265625 C 7.628906 -42.972656 8.425781 -43.4375 9.34375 -43.65625 C 10.257812 -43.875 11.144531 -43.875 12 -43.65625 C 12.863281 -43.4375 13.566406 -42.972656 14.109375 -42.265625 C 14.648438 -41.566406 14.859375 -40.660156 14.734375 -39.546875 C 14.378906 -35.828125 14.019531 -32.117188 13.65625 -28.421875 C 13.300781 -24.734375 12.941406 -21.050781 12.578125 -17.375 C 17.097656 -18.332031 21.710938 -18.992188 26.421875 -19.359375 Z M 26.421875 -19.359375 "/></g></g></g><g fill="#ae5630" fill-opacity="1"><g transform="translate(301.781543, 301.85837)"><g><path d="M 26.25 -31.765625 C 26.644531 -32.835938 27.257812 -33.613281 28.09375 -34.09375 C 28.9375 -34.570312 29.828125 -34.800781 30.765625 -34.78125 C 31.703125 -34.757812 32.5625 -34.519531 33.34375 -34.0625 C 34.125 -33.601562 34.679688 -32.972656 35.015625 -32.171875 C 35.359375 -31.378906 35.332031 -30.441406 34.9375 -29.359375 C 31.21875 -19.492188 27.0625 -9.90625 22.46875 -0.59375 C 21.945312 0.476562 21.175781 1.15625 20.15625 1.4375 C 19.144531 1.71875 18.128906 1.664062 17.109375 1.28125 C 16.085938 0.90625 15.296875 0.28125 14.734375 -0.59375 C 12.742188 -3.675781 11.097656 -6.972656 9.796875 -10.484375 C 8.492188 -14.003906 7.34375 -17.582031 6.34375 -21.21875 C 5.351562 -24.851562 4.316406 -28.382812 3.234375 -31.8125 C 2.878906 -32.9375 2.890625 -33.90625 3.265625 -34.71875 C 3.640625 -35.539062 4.226562 -36.179688 5.03125 -36.640625 C 5.832031 -37.097656 6.691406 -37.328125 7.609375 -37.328125 C 8.523438 -37.328125 9.382812 -37.078125 10.1875 -36.578125 C 10.988281 -36.078125 11.546875 -35.289062 11.859375 -34.21875 C 12.941406 -30.820312 13.972656 -27.304688 14.953125 -23.671875 C 15.929688 -20.035156 17.097656 -16.5 18.453125 -13.0625 C 19.847656 -16.132812 21.195312 -19.226562 22.5 -22.34375 C 23.800781 -25.46875 25.050781 -28.609375 26.25 -31.765625 Z M 26.25 -31.765625 "/></g></g></g><g fill="#ae5630" fill-opacity="1"><g transform="translate(340.005437, 301.85837)"><g><path d="M 24.984375 -12.640625 C 26.140625 -12.597656 27.066406 -12.257812 27.765625 -11.625 C 28.472656 -10.988281 28.9375 -10.21875 29.15625 -9.3125 C 29.375 -8.414062 29.375 -7.523438 29.15625 -6.640625 C 28.9375 -5.765625 28.472656 -5.035156 27.765625 -4.453125 C 27.066406 -3.878906 26.140625 -3.613281 24.984375 -3.65625 C 22.265625 -3.769531 19.546875 -3.757812 16.828125 -3.625 C 14.117188 -3.488281 11.40625 -3.195312 8.6875 -2.75 C 7.851562 -2.632812 6.972656 -2.722656 6.046875 -3.015625 C 5.128906 -3.316406 4.359375 -3.804688 3.734375 -4.484375 C 3.117188 -5.171875 2.894531 -6.050781 3.0625 -7.125 C 3.738281 -12.644531 4.484375 -18.160156 5.296875 -23.671875 C 6.117188 -29.179688 7.007812 -34.691406 7.96875 -40.203125 C 8.09375 -40.878906 8.332031 -41.460938 8.6875 -41.953125 C 9.007812 -42.503906 9.46875 -42.96875 10.0625 -43.34375 C 10.664062 -43.726562 11.40625 -43.941406 12.28125 -43.984375 C 16.59375 -44.097656 20.910156 -44.019531 25.234375 -43.75 C 26.390625 -43.664062 27.316406 -43.289062 28.015625 -42.625 C 28.710938 -41.96875 29.171875 -41.191406 29.390625 -40.296875 C 29.609375 -39.398438 29.609375 -38.507812 29.390625 -37.625 C 29.171875 -36.75 28.710938 -36.03125 28.015625 -35.46875 C 27.316406 -34.914062 26.390625 -34.675781 25.234375 -34.75 C 22.273438 -34.945312 19.253906 -35.046875 16.171875 -35.046875 C 15.972656 -33.890625 15.773438 -32.734375 15.578125 -31.578125 C 15.378906 -30.421875 15.203125 -29.265625 15.046875 -28.109375 C 16.679688 -28.066406 18.257812 -27.960938 19.78125 -27.796875 C 20.976562 -27.679688 22.023438 -27.234375 22.921875 -26.453125 C 23.816406 -25.671875 24.265625 -24.625 24.265625 -23.3125 C 24.265625 -22.550781 24.054688 -21.8125 23.640625 -21.09375 C 23.222656 -20.375 22.671875 -19.796875 21.984375 -19.359375 C 21.304688 -18.921875 20.570312 -18.738281 19.78125 -18.8125 C 17.738281 -19.007812 15.695312 -19.109375 13.65625 -19.109375 C 13.5 -17.992188 13.335938 -16.859375 13.171875 -15.703125 C 13.015625 -14.546875 12.859375 -13.40625 12.703125 -12.28125 C 14.742188 -12.476562 16.78125 -12.609375 18.8125 -12.671875 C 20.851562 -12.734375 22.910156 -12.722656 24.984375 -12.640625 Z M 24.984375 -12.640625 "/></g></g></g></svg>